<svg xmlns="http://www.w3.org/2000/svg" xmlns:xlink="http://www.w3.org/1999/xlink" preserveAspectRatio="xMidYMid" width="179" height="37" viewBox="0 0 179 37">
  <defs>
    <style>
      .cls-1 {
        fill: #fff;
      }

      .cls-1, .cls-2 {
        fill-rule: evenodd;
      }

      .cls-2 {
        fill: #ff9500;
      }
    </style>
  </defs>
  <path d="M84.635,31.980 L84.635,20.217 L80.812,20.217 L80.812,31.980 L75.480,31.980 L75.480,5.613 L80.812,5.613 L80.812,16.423 L84.635,16.423 L84.635,5.613 L89.996,5.613 L89.996,31.980 L84.635,31.980 ZM65.438,14.350 C65.785,14.766 66.105,15.110 66.397,15.383 C66.690,15.657 67.081,15.991 67.569,16.386 C68.058,16.782 68.404,17.073 68.609,17.258 C69.361,17.922 69.996,18.545 70.514,19.126 C71.031,19.707 71.519,20.363 71.979,21.096 C72.437,21.828 72.782,22.619 73.011,23.469 C73.241,24.319 73.356,25.237 73.356,26.223 C73.356,28.069 72.696,29.580 71.378,30.757 C70.060,31.933 68.458,32.522 66.573,32.522 C65.352,32.522 64.268,32.297 63.321,31.848 C62.374,31.399 61.610,30.788 61.029,30.017 C60.448,29.245 60.001,28.391 59.689,27.453 C59.376,26.516 59.195,25.510 59.147,24.436 L64.552,23.396 C64.552,23.933 64.561,24.406 64.581,24.817 C64.601,25.227 64.652,25.674 64.735,26.157 C64.818,26.640 64.930,27.036 65.072,27.343 C65.213,27.651 65.414,27.910 65.672,28.120 C65.931,28.330 66.236,28.435 66.588,28.435 C67.643,28.435 68.170,27.761 68.170,26.413 C68.170,24.568 67.130,22.732 65.050,20.905 L63.395,19.499 C62.867,19.060 62.447,18.694 62.135,18.401 C61.822,18.108 61.454,17.712 61.029,17.214 C60.604,16.716 60.272,16.235 60.033,15.771 C59.793,15.307 59.588,14.748 59.418,14.094 C59.247,13.440 59.161,12.746 59.161,12.014 C59.161,9.875 59.840,8.183 61.197,6.938 C62.555,5.693 64.356,5.071 66.603,5.071 C68.468,5.071 70.055,5.735 71.363,7.063 C72.672,8.391 73.326,9.992 73.326,11.867 L73.312,12.058 C73.312,12.185 73.312,12.331 73.312,12.497 L67.804,13.259 C67.804,13.152 67.811,12.983 67.826,12.754 C67.840,12.524 67.848,12.336 67.848,12.190 C67.848,11.838 67.823,11.501 67.774,11.179 C67.725,10.857 67.645,10.534 67.533,10.212 C67.420,9.890 67.247,9.634 67.013,9.443 C66.778,9.253 66.495,9.157 66.163,9.157 C65.577,9.157 65.138,9.387 64.845,9.846 C64.552,10.305 64.405,10.847 64.405,11.472 C64.405,12.019 64.491,12.532 64.662,13.010 C64.832,13.489 65.091,13.935 65.438,14.350 ZM52.013,26.340 L48.570,26.340 L47.545,31.980 L42.257,31.980 L47.955,5.613 L52.672,5.613 L58.356,31.980 L53.097,31.980 L52.013,26.340 ZM50.328,13.274 L48.937,23.059 L51.661,23.059 L50.328,13.274 ZM31.417,5.613 L36.749,5.613 L36.749,28.318 L41.993,28.318 L41.993,31.980 L31.417,31.980 L31.417,5.613 ZM28.092,18.364 C27.682,18.935 27.154,19.394 26.510,19.741 C25.865,20.088 25.167,20.332 24.415,20.473 C23.663,20.615 22.794,20.691 21.808,20.700 L21.808,31.980 L16.446,31.980 L16.446,5.613 L22.818,5.613 C25.113,5.613 26.783,6.252 27.828,7.531 C28.873,8.811 29.396,10.661 29.396,13.083 C29.396,14.275 29.281,15.310 29.051,16.189 C28.822,17.068 28.502,17.793 28.092,18.364 ZM24.342,13.200 C24.342,13.103 24.342,13.030 24.342,12.981 C24.342,12.600 24.339,12.312 24.335,12.116 C24.329,11.921 24.313,11.672 24.283,11.369 C24.254,11.067 24.207,10.840 24.144,10.688 C24.080,10.537 23.988,10.364 23.866,10.168 C23.744,9.973 23.595,9.831 23.419,9.743 C23.243,9.655 23.021,9.577 22.752,9.509 C22.484,9.441 22.174,9.406 21.822,9.406 L21.822,16.936 C22.105,16.936 22.357,16.919 22.577,16.884 C22.796,16.850 22.989,16.811 23.155,16.767 C23.321,16.723 23.468,16.643 23.595,16.526 C23.722,16.408 23.827,16.306 23.910,16.218 C23.993,16.130 24.064,15.986 24.122,15.786 C24.181,15.586 24.225,15.422 24.254,15.295 C24.283,15.168 24.305,14.963 24.320,14.680 C24.335,14.397 24.342,14.170 24.342,13.999 C24.342,13.828 24.342,13.562 24.342,13.200 ZM6.405,14.350 C6.751,14.766 7.071,15.110 7.364,15.383 C7.657,15.657 8.048,15.991 8.536,16.386 C9.024,16.782 9.371,17.073 9.576,17.258 C10.328,17.922 10.963,18.545 11.481,19.126 C11.998,19.707 12.486,20.363 12.945,21.096 C13.404,21.828 13.748,22.619 13.978,23.469 C14.207,24.319 14.322,25.237 14.322,26.223 C14.322,28.069 13.663,29.580 12.345,30.757 C11.026,31.933 9.425,32.522 7.540,32.522 C6.319,32.522 5.235,32.297 4.288,31.848 C3.341,31.399 2.577,30.788 1.996,30.017 C1.415,29.245 0.968,28.391 0.655,27.453 C0.343,26.516 0.162,25.510 0.113,24.436 L5.519,23.396 C5.519,23.933 5.528,24.406 5.548,24.817 C5.567,25.227 5.619,25.674 5.702,26.157 C5.785,26.640 5.897,27.036 6.039,27.343 C6.180,27.651 6.380,27.910 6.639,28.120 C6.898,28.330 7.203,28.435 7.555,28.435 C8.609,28.435 9.137,27.761 9.137,26.413 C9.137,24.568 8.097,22.732 6.017,20.905 L4.361,19.499 C3.834,19.060 3.414,18.694 3.102,18.401 C2.789,18.108 2.420,17.712 1.996,17.214 C1.571,16.716 1.239,16.235 1.000,15.771 C0.760,15.307 0.555,14.748 0.384,14.094 C0.213,13.440 0.128,12.746 0.128,12.014 C0.128,9.875 0.807,8.183 2.164,6.938 C3.521,5.693 5.323,5.071 7.569,5.071 C9.435,5.071 11.021,5.735 12.330,7.063 C13.639,8.391 14.293,9.992 14.293,11.867 L14.278,12.058 C14.278,12.185 14.278,12.331 14.278,12.497 L8.771,13.259 C8.771,13.152 8.778,12.983 8.793,12.754 C8.807,12.524 8.814,12.336 8.814,12.190 C8.814,11.838 8.790,11.501 8.741,11.179 C8.692,10.857 8.612,10.534 8.500,10.212 C8.387,9.890 8.214,9.634 7.980,9.443 C7.745,9.253 7.462,9.157 7.130,9.157 C6.544,9.157 6.105,9.387 5.812,9.846 C5.519,10.305 5.372,10.847 5.372,11.472 C5.372,12.019 5.457,12.532 5.628,13.010 C5.799,13.489 6.058,13.935 6.405,14.350 Z" class="cls-1"/>
  <path d="M126.980,21.014 L126.980,23.241 C126.960,24.247 126.878,25.174 126.731,26.024 C126.585,26.874 126.336,27.699 125.984,28.500 C125.632,29.301 125.186,29.977 124.644,30.528 C124.102,31.080 123.401,31.525 122.542,31.861 C121.682,32.198 120.696,32.367 119.583,32.367 C118.440,32.367 117.427,32.203 116.543,31.876 C115.659,31.549 114.932,31.110 114.361,30.558 C113.789,30.006 113.318,29.327 112.947,28.522 C112.576,27.716 112.315,26.869 112.163,25.980 C112.012,25.092 111.936,24.115 111.936,23.050 L111.936,14.320 C111.936,8.090 114.485,4.974 119.583,4.974 C120.657,4.974 121.611,5.118 122.446,5.406 C123.281,5.695 123.982,6.093 124.549,6.600 C125.115,7.108 125.581,7.733 125.947,8.475 C126.314,9.218 126.577,10.023 126.738,10.892 C126.900,11.762 126.980,12.719 126.980,13.763 L126.980,16.034 L121.736,16.034 L121.736,13.602 C121.736,13.124 121.726,12.711 121.707,12.364 C121.687,12.018 121.636,11.622 121.553,11.178 C121.470,10.734 121.357,10.372 121.216,10.094 C121.074,9.816 120.864,9.579 120.586,9.383 C120.308,9.188 119.973,9.090 119.583,9.090 C118.040,9.090 117.268,10.389 117.268,12.987 L117.268,24.369 C117.268,26.957 118.040,28.251 119.583,28.251 C120.042,28.251 120.427,28.119 120.740,27.855 C121.052,27.591 121.277,27.218 121.414,26.735 C121.550,26.251 121.643,25.778 121.692,25.314 C121.741,24.850 121.765,24.320 121.765,23.724 L121.765,21.014 L126.980,21.014 ZM105.066,16.327 L109.080,16.327 L109.080,20.077 L105.066,20.077 L105.066,31.854 L99.734,31.854 L99.734,5.487 L110.735,5.487 L110.735,9.149 L105.066,9.149 L105.066,16.327 Z" class="cls-2"/>
  <path d="M152.529,35.188 C152.533,35.675 152.614,35.591 153.103,35.763 C153.384,35.860 153.644,35.957 153.946,36.058 C155.864,36.676 157.813,36.979 159.885,36.991 C161.357,37.000 162.999,36.823 164.424,36.482 C164.743,36.403 165.458,36.255 165.709,36.079 C165.092,35.894 164.828,35.520 164.245,35.482 C162.263,35.360 160.821,35.133 158.923,34.498 C158.400,34.322 157.894,34.094 157.421,33.943 C156.928,33.780 155.575,35.175 152.529,35.188 L152.529,35.188 ZM162.408,5.487 C162.429,5.370 163.492,3.671 163.803,3.554 C164.364,3.339 166.156,3.196 166.840,3.183 C169.955,3.120 169.755,3.280 171.648,5.176 C172.537,6.063 174.149,8.236 174.392,9.187 C174.575,9.909 173.920,14.282 173.694,15.147 C172.567,14.732 171.290,14.307 170.023,14.047 L169.755,13.971 C169.087,13.832 167.134,13.651 166.849,13.387 L163.896,10.683 C163.697,10.507 163.616,10.372 163.399,10.208 C163.190,10.049 163.080,9.977 162.901,9.801 C162.603,9.514 162.178,9.212 161.871,8.939 C161.625,8.715 161.574,8.703 161.374,8.535 C161.106,8.316 161.174,8.300 160.838,8.148 C160.948,7.724 162.118,5.764 162.408,5.487 L162.408,5.487 ZM151.721,2.170 L151.857,1.745 C156.047,0.081 159.800,-0.558 164.377,0.505 C165.717,0.817 165.130,0.686 165.854,1.144 C165.807,1.212 163.837,2.906 163.492,3.251 C163.165,3.579 161.795,3.831 161.335,3.974 L156.954,5.433 L156.579,5.538 C154.937,4.873 153.946,4.213 151.776,3.520 L151.721,2.170 ZM142.038,14.214 C142.297,9.851 148.590,0.972 151.431,3.877 C151.619,4.062 151.904,6.269 151.933,6.702 L152.189,8.455 C151.742,8.674 151.334,9.065 150.917,9.367 C150.734,9.506 150.483,9.696 150.325,9.834 C149.326,10.713 148.453,11.398 147.560,12.419 C146.403,13.748 146.684,13.391 144.914,14.071 C143.489,14.622 142.974,15.017 141.987,15.455 L142.038,14.214 ZM178.429,13.945 C178.757,15.169 178.918,16.527 178.999,17.796 C178.667,17.599 178.451,17.430 178.114,17.216 C176.881,16.421 177.268,17.006 176.919,15.631 L176.647,14.525 C176.145,13.025 175.787,11.705 175.204,10.254 C174.600,8.762 174.911,9.527 174.541,8.077 C174.349,7.329 174.013,6.559 173.864,5.908 C176.136,7.867 177.544,11.078 178.429,13.945 L178.429,13.945 ZM172.992,24.203 C173.345,24.081 173.771,23.812 174.081,23.652 C174.388,24.628 174.639,25.817 174.817,26.868 C175.107,28.575 175.064,28.457 174.294,29.819 C173.826,30.656 173.196,31.475 172.660,32.165 C172.218,32.741 171.665,33.086 171.073,33.514 C170.967,33.590 170.882,33.649 170.759,33.720 L170.469,33.935 C170.112,34.116 169.755,34.427 169.312,34.549 C168.385,34.809 165.428,35.348 164.730,35.167 C164.416,35.083 163.012,33.863 162.782,33.645 L161.161,31.782 C161.501,31.497 162.318,31.110 162.722,30.828 C164.050,29.920 165.585,28.667 166.649,27.520 L167.806,26.267 C167.968,26.170 169.316,25.822 169.661,25.695 C170.376,25.435 172.618,24.569 172.992,24.203 L172.992,24.203 ZM175.511,29.109 C176.094,28.751 177.583,25.653 177.902,24.720 C178.548,22.853 178.940,21.138 178.999,18.998 L177.566,20.975 C177.115,21.491 177.161,21.328 177.038,22.176 C176.966,22.660 176.872,23.160 176.787,23.631 C176.532,24.993 176.145,26.313 175.694,27.612 C175.404,28.457 175.485,28.193 175.511,29.109 L175.511,29.109 ZM168.836,16.094 C169.036,16.434 169.291,16.699 169.580,17.039 C169.835,17.338 170.091,17.619 170.338,17.935 C170.584,18.255 170.839,18.515 171.095,18.835 C171.231,19.003 171.342,19.108 171.478,19.281 C171.622,19.457 171.733,19.541 171.852,19.718 C171.078,21.235 169.925,23.248 168.844,24.535 C168.453,25.001 168.053,25.535 167.598,25.918 C167.096,26.334 164.437,27.049 163.616,27.247 C162.246,27.574 160.438,27.840 158.966,27.860 C158.613,26.792 158.009,25.607 157.579,24.526 C157.136,23.417 156.694,22.265 156.290,21.109 C155.996,20.263 156.252,20.041 156.490,19.221 C156.664,18.633 156.856,18.040 157.056,17.473 L158.306,13.996 L158.727,12.870 C160.753,12.937 162.905,13.180 164.901,13.420 C167.053,13.676 166.675,13.483 167.351,14.307 C167.623,14.639 167.827,14.891 168.087,15.224 C168.206,15.370 168.325,15.518 168.457,15.677 C168.521,15.749 168.589,15.833 168.632,15.879 C168.682,15.938 168.695,15.950 168.747,16.005 L168.836,16.094 ZM154.069,15.404 C154.235,16.262 154.728,17.616 155.022,18.477 C155.707,20.487 155.818,20.121 155.481,21.584 C155.231,22.677 154.946,23.723 154.660,24.791 C154.392,25.809 154.018,26.856 153.780,27.852 C152.291,27.713 149.704,27.166 148.224,26.700 C147.275,26.402 147.045,26.440 146.730,26.006 C145.709,24.985 143.051,20.302 143.187,19.587 C143.353,18.717 145.560,15.375 146.326,14.404 C146.675,13.966 146.645,13.844 147.343,13.694 C149.138,13.307 151.453,12.895 153.329,12.793 L154.069,15.404 ZM146.637,26.544 C147.147,26.885 147.654,27.561 148.117,27.991 C149.113,28.899 150.193,29.861 151.321,30.669 L152.980,31.846 C152.891,33.191 152.631,33.742 152.261,34.830 C151.172,34.973 151.108,34.898 150.321,34.456 C146.369,32.228 142.361,28.062 142.157,23.530 C142.527,23.799 142.825,24.030 143.195,24.316 L145.446,25.843 C145.833,26.069 146.280,26.305 146.637,26.544 L146.637,26.544 Z" class="cls-1"/>
</svg>
