<?xml version="1.0" encoding="utf-8"?>
<!-- Generator: Adobe Illustrator 18.1.1, SVG Export Plug-In . SVG Version: 6.00 Build 0)  -->
<svg version="1.1" id="Layer_1" xmlns="http://www.w3.org/2000/svg" xmlns:xlink="http://www.w3.org/1999/xlink" x="0px" y="0px"
	 viewBox="0 0 464 507.9" enable-background="new 0 0 464 507.9" xml:space="preserve">
<g>
	<g>
		<path fill-rule="evenodd" clip-rule="evenodd" fill="#D19D3A" d="M457.6,231.9c0-73-34.7-137.8-88.5-179l-18.9-45
			c0,0-33.3-7.9-118-7.9c-84.7,0-118,7.9-118,7.9l-18.9,45C41.5,94,6.8,158.9,6.8,231.9c0,86.5,48.8,161.6,120.3,199.4
			c16.8,28.6,39.6,42.9,53.1,50.6c0-3,0-8,0-8s13.1,16.4,52,34c34.6-12.8,52-34,52-34s0,6.5,0,10c20.5-11.7,40.3-24.1,54.1-53.1
			C409.3,392.8,457.6,318,457.6,231.9z"/>
	</g>
</g>
<g>
	<g>
		<path fill-rule="evenodd" clip-rule="evenodd" fill="#80B441" d="M361.6,60c-69.3,0-191.3-0.5-258.5-0.5
			C50.7,98.7,16.8,161.3,16.8,231.9c0,118.9,96.4,215.2,215.2,215.2s215.2-96.4,215.2-215.2C447.2,161.7,413.6,99.3,361.6,60z"/>
	</g>
</g>
<g>
	<g>
		<path fill-rule="evenodd" clip-rule="evenodd" d="M392,229.9c-12.9-23.3-30-40-30-40s7.4-9.8,14.6-24.2l87.4,20.2l-14-50l-10-4
			l-10-34l10,2l-10-36l-64-14c0,0-31.2-4-66-6c-34.1-2-70-2-70-2s-39.8,0-76,2c-37.8,2-72,8-72,8l-2,4c0,0-20.7-4.9-38,12
			c-29.8,29.2-12,56-12,56l-12,2l-18,60l42-8l2-6c0,0,29.4,0.4,38-10c-0.6,3.2-2,4-2,4l5.8-0.9c7.4,14.4,16.2,24.9,16.2,24.9
			s-15.9,16.2-28,38c-13.8,25-24,56-24,56l18-6c0,0-15.3,22.2-16,52c15.9,1.5,23.5,11.8,34,36c10.5,24.2,32,46,32,46s-2.2-11.7,0-24
			c16,44.6,29.1,61.8,54,76c0.9-8.4,0-16,0-16s5.3,23,60,48c54.7-25,60-48,60-48s-0.9,7.6,0,16c24.9-14.2,38-31.4,54-76
			c2.2,12.3,0,24,0,24s21.5-21.8,32-46c10.5-24.2,18.1-34.5,34-36c-0.7-29.8-16-52-16-52l18,6C414,283.9,405.1,253.6,392,229.9z"/>
	</g>
</g>
<g>
	<g>
		<path fill-rule="evenodd" clip-rule="evenodd" fill="#848689" d="M148.4,148.1c-3.7-3.5-7.6-6.7-11.8-9.6l-0.7,5.5
			c3.5,1.5,7.6,3.5,12.4,6.2L148.4,148.1z M113.2,179.8c0,0-3.8-6.6-7.7-17.7l-6.3,0.9C106.4,174.4,113.2,179.8,113.2,179.8z
			 M276,187.9c-23.3-29.6-76-28-76-28s17.2-6.4,54-6c-35.3-4.4-70.4-3.5-102,12c-6.8-5.9-12.5-10.6-17.2-14.4l-0.8,6.4l-11.5,1.7
			c7.4,9.6,11.5,18.3,11.5,18.3s-41.5,33.5-48,94c10.9-1.7,20,0,20,0s-12.9,9-16,28c8.9-6.6,22-8,22-8s-12.5,24.7-2,56
			c1.7-33.2,18-44,18-44s-3.5,44.3,14,80c-0.8-28.6,10-42,10-42s0.9,29.4,18,62c1.2-34.2,20.8-48.6,20.8-48.6s3.5,12.3,17.2,18.6
			c-10.1-10.7-11.4-30.4-6-38c5.4-7.6,22.1-8,30-8s42,2,42,2l2-16c0,0-15.6-27.1-28-48c-12.4-20.9,2-44,2-44S299.3,217.5,276,187.9z
			 M212,267.9c-7.5,10.3-17.8,18-30,18c-12.2,0-29.4-10.1-38-24c-8.6-13.9-16-12-16-12s15.1-10.6,28-6c-3.3-3.9-12-6-12-6
			s17.9-2.2,34,10c16.1,12.2,17.5,16,24,16c6.5,0,16-8.2,10-22C217.8,250.1,219.5,257.6,212,267.9z"/>
	</g>
</g>
<g>
	<g>
		<path fill-rule="evenodd" clip-rule="evenodd" fill="#383839" d="M365.9,163.2l-5.9-1.4c0,0-0.4-1.6-1-3.7
			c-5,16.5-13,33.7-13,33.7S356.8,179.1,365.9,163.2z M306.6,156.6c-0.5,0.7-0.7,1-0.7,1c0.3-0.3,0.6-0.7,0.9-1
			C306.8,156.6,306.7,156.6,306.6,156.6z M343.8,157.9c-2.7,10.5-3.8,21.9-3.8,21.9s4.6-11.1,10.7-22.7
			C348.5,157.7,346.1,158,343.8,157.9z M232,415.9c-32.6,0-36-16-36-16c0,23,28,26,28,26h16c25.1,0,28-24,28-24
			S264.6,415.9,232,415.9z M360,253.9c-9.1-30.3-22.7-51-35-64.7c1.5-4.5,6.6-19.5,13.7-31.6c-8-1-14.7-3.7-14.7-3.7v6
			c0,0-2.2-0.5-5.9-1.2c-3.7,4.1-7.5,8.8-11,14.1c-6.7-4.9-11.1-6.9-11.1-6.9s6.9,6.3,16,18c-51.4-28.5-112-24-112-24
			s24.4,1.4,36,12c-31.2,3.2-32,10-32,10s18.7-3.5,28,4c-15.6,4.8-20,12-20,12s14.7-1.1,22,4c-16.4,4.7-20,14-20,14s11-1.3,18,6
			s0,12,0,12c1.4,13.8,14,32,14,32s-2.1-0.8-8-6c2.3,11.4,14,22,14,22s-7.4-1.1-14-6c5.4,15.6,20,26,20,26s-8.3-0.2-14-6
			c2.6,10.3,24,26,24,26s-17.2-8-36-8c-11.5,0-7.9,14,0,14c7.9,0,18.1,1,26,6c7.9,5,8.2,23.2,0,36c20.6-7.8,18-36,18-36
			s5.1,6.4,6,22c7.9-21.1,4-30,4-30s4.6,1.1,10,0c-11-8.1-18-16-18-16s4,2.9,12,4c-8.2-8.4-12-16-12-16s18.9,7.9,32,0
			c13.1-7.9,19.5-20.5,30-24c-8.8,0-16,4-16,4s3.6-10.3,26-16c-9.2-4.4-16,0-16,0S340.3,253.9,360,253.9z M318.2,261.9
			c-8.5,13.8-25.5,23.9-37.6,23.9c-12.1,0-22.3-7.7-29.7-18c-7.4-10.2-5.7-17.8,0-25.9c-5.9,13.8,3.5,21.9,9.9,21.9
			c6.4,0,7.9-3.8,23.7-16c15.9-12.2,33.6-10,33.6-10s-8.6,2.1-11.9,6c12.7-4.6,27.7,6,27.7,6S326.7,248.1,318.2,261.9z M214,435.9
			c0,0-4.9,4-10,12c-14.9-12.3-16-26-16-26c-4.8,22.5,12,38.8,34,44C211,455.8,214,435.9,214,435.9z"/>
	</g>
</g>
<g>
	<g>
		<path fill-rule="evenodd" clip-rule="evenodd" fill="#FFFFFF" d="M146.8,30.1c2.3-0.2,4.6-0.4,6.9-0.6c0.3,1.7,0.6,3.4,0.9,5.1
			c1.6-0.1,3.1-0.2,4.7-0.4c-1.6-7.2-3.2-14.1-4.8-20.8c-1.8,0.1-3.6,0.3-5.4,0.4c-2.8,7.1-5.7,14.4-8.7,22c1.5-0.1,3.1-0.3,4.6-0.4
			C145.6,33.7,146.2,31.9,146.8,30.1z M151.4,16.6c0.6,3.3,1.2,6.6,1.8,10c-1.8,0.1-3.6,0.3-5.4,0.4C149,23.5,150.2,20,151.4,16.6z
			 M215,110c-4.9,0.1-9.8,0.3-14.7,0.5c-0.1,3.1-0.2,6.3-0.4,9.5c-5,0.2-10,0.5-15,0.8c1.1-18.7,2.1-36.2,3-52.5
			c2.3-0.1,4.7-0.3,7-0.4c0.3-5.2,0.5-10.3,0.7-15.2c-9.2,0.4-18.4,1-27.6,1.8c-0.4,5-0.9,10.1-1.3,15.3c2.4-0.2,4.7-0.4,7.1-0.6
			c-1.2,16.3-2.6,33.9-4,52.7c-2.5,0.2-5,0.4-7.6,0.7c-0.6,6.6-1.1,13.4-1.7,20.3c18-1.7,36-2.8,53.8-3.3
			C214.5,129.4,214.8,119.5,215,110z M181.9,29.4c-2.8,0.1-5.6,0.3-8.4,0.5c0.4-6.1,0.7-12.1,1.1-17.8c-1.5,0.1-2.9,0.2-4.4,0.3
			c-0.5,6.9-0.9,13.9-1.4,21.3c4.2-0.3,8.3-0.5,12.5-0.7C181.5,31.7,181.7,30.6,181.9,29.4z M121,37c1.4,0.7,3,1,5,0.8
			c1.4-0.2,2.7-0.5,3.9-1.2c1.2-0.6,2.2-1.4,3.1-2.2c-0.6-0.7-1.3-1.4-1.9-2.2c-0.8,0.6-1.6,1.1-2.2,1.5c-0.7,0.4-1.4,0.6-2.3,0.7
			c-1.6,0.2-2.8-0.4-3.6-1.6c-0.8-1.2-1-3.2-0.6-6c0.3-2.8,1-4.9,2.1-6.2c1-1.3,2.4-2.1,3.9-2.2c1.4-0.1,2.6,0.2,3.8,1
			c0.8-0.8,1.6-1.6,2.4-2.5c-0.9-0.6-1.8-1.1-2.8-1.3c-1-0.3-2.1-0.3-3.4-0.2c-1.8,0.2-3.5,0.8-5,1.7c-1.5,1-2.8,2.3-3.8,4
			c-1,1.7-1.7,3.8-2,6.2c-0.3,2.5-0.2,4.5,0.4,6.2C118.7,35.1,119.7,36.3,121,37z M212.7,22.6c2.1,0,4.2-0.1,6.4-0.1c0-1,0-2,0-2.9
			c-2.1,0-4.2,0.1-6.3,0.1c0-2.1,0.1-4.2,0.1-6.3c2.4-0.1,4.8-0.1,7.2-0.1c0.2-0.9,0.3-1.9,0.5-2.8c-4,0.1-8,0.1-12,0.2
			c-0.1,6.8-0.3,13.9-0.5,21.1c1.5,0,3-0.1,4.4-0.1C212.6,28.6,212.6,25.6,212.7,22.6z M288.5,32.9c-0.2-3.1-0.4-6.1-0.6-9.1
			c-0.2-2.2-0.5-4.8-1-7.6c-0.1-0.3-0.1-0.5-0.2-0.8c2.7,5.8,5.4,11.7,8.2,17.8c1.9,0.1,3.8,0.2,5.7,0.4c-0.6-7.3-1.2-14.4-1.8-21.3
			c-1.3-0.1-2.6-0.2-3.9-0.2c0.3,3.2,0.5,6.5,0.8,9.8c0.1,1.3,0.3,2.7,0.5,4.1c0.2,1.4,0.5,2.5,0.7,3.3c-2.8-6-5.5-11.9-8.3-17.6
			c-1.8-0.1-3.7-0.2-5.5-0.3c0.5,6.8,0.9,13.9,1.4,21.2C285.8,32.8,287.2,32.9,288.5,32.9z M317.2,34.9c-0.8-7.4-1.5-14.5-2.2-21.4
			c-1.5-0.1-2.9-0.2-4.4-0.3c0.7,6.9,1.4,14,2.1,21.3C314.2,34.7,315.7,34.8,317.2,34.9z M196.9,11c-1.4,0.1-2.9,0.1-4.3,0.2
			c-0.3,6.8-0.6,13.9-0.9,21.2c1.5-0.1,3-0.1,4.5-0.2C196.4,24.9,196.7,17.8,196.9,11z M332.2,31.2c2.3,0.2,4.7,0.5,7,0.7
			c0.7,1.8,1.3,3.6,2,5.3c1.6,0.2,3.2,0.3,4.7,0.5c-3.2-7.7-6.4-15.1-9.5-22.2c-1.8-0.2-3.6-0.4-5.4-0.5c-1.4,6.7-2.8,13.6-4.1,20.8
			c1.5,0.1,3.1,0.3,4.6,0.4C331.7,34.5,331.9,32.8,332.2,31.2z M334,18.2c1.3,3.4,2.7,6.9,4,10.5c-1.8-0.2-3.6-0.4-5.4-0.5
			C333,24.8,333.5,21.5,334,18.2z M80.8,103.1c-3.3-1.8-8.1-2.7-14.3-2.5c-10,0.3-14.5-2.1-13.3-7.5c0.4-1.9,1.6-3.8,3.7-5.7
			c2-1.9,4.6-3.2,7.6-3.8c2.1-0.4,3.9-0.6,5.4-0.5c1.5,0.1,2.8,0.4,3.9,0.9c1.2,0.5,2.2,1.2,3.1,2.2c0.9,0.9,1.9,2.1,2.8,3.4
			c5.1-0.9,10.2-1.8,15.2-2.7c1.4-8.3,2.8-16.3,4.2-24.1c-4.9,0.8-9.7,1.6-14.7,2.4c-0.2,1.1-0.4,2.2-0.6,3.3
			c-1.9-0.9-4.2-1.4-6.7-1.7c-2.5-0.2-5.6,0-9.3,0.7c-3.4,0.7-6.8,1.9-10,3.6c-3.2,1.8-6.2,3.9-9,6.5c-2.8,2.6-5.2,5.5-7.2,8.7
			c-2,3.3-3.5,6.6-4.3,10.2c-0.5,2.2-0.8,4.6-0.9,7.3c0,2.7,0.7,5.2,2.1,7.6c1.5,2.3,3.9,4.3,7.3,5.8c3.4,1.6,8.2,2.2,14.5,2.1
			c1.8,0,3.5,0.1,5.2,0.3c1.7,0.2,3.3,0.7,4.6,1.4c1.4,0.7,2.4,1.7,3.1,2.9c0.7,1.2,0.9,2.9,0.5,4.8c-0.5,2.4-1.8,4.5-4,6.4
			c-2.2,1.9-4.8,3.1-7.8,3.8c-2.3,0.5-4.2,0.7-5.9,0.6c-1.7-0.1-3.1-0.4-4.4-1c-1.3-0.6-2.4-1.5-3.5-2.6c-1.1-1.1-2.1-2.4-3.1-4
			c-5.5,1.2-11,2.5-16.6,3.9c-2.5,10.3-5.1,21-7.8,32.1c5.8-1.5,11.6-2.9,17.3-4.3c0.4-1.6,0.7-3.3,1.1-4.9c2.2,1.2,4.8,1.9,7.9,2.3
			c3,0.4,6.6,0.1,10.7-0.8c3.9-0.8,7.7-2.4,11.3-4.6c3.6-2.2,6.8-4.9,9.6-8c2.8-3.1,5.2-6.5,7.2-10.3c1.9-3.7,3.2-7.6,3.9-11.5
			c0.3-2,0.5-4.4,0.5-7.4c0-2.9-0.8-5.7-2.2-8.4C86.5,107.2,84.1,105,80.8,103.1z M238.1,31.9c3,0,5.2-1,6.9-2.9
			c1.6-1.9,2.4-4.7,2.3-8.3c-0.1-3.6-1-6.3-2.6-8.1c-1.7-1.8-3.9-2.7-6.8-2.7c-2.9,0-5.1,0.9-6.7,2.7c-1.6,1.8-2.4,4.5-2.4,8
			c0,3.6,0.8,6.4,2.5,8.3C232.8,30.9,235.1,31.9,238.1,31.9z M234.3,14.6c0.8-1.2,1.9-1.8,3.5-1.8c1.6,0,2.8,0.6,3.6,1.8
			c0.8,1.2,1.2,3.2,1.3,6c0.1,2.9-0.3,5-1.1,6.2c-0.8,1.3-1.9,1.9-3.6,1.9c-1.5,0-2.7-0.7-3.5-1.9c-0.8-1.3-1.2-3.3-1.3-6.2
			C233.2,17.8,233.6,15.8,234.3,14.6z M262.7,31.8c-0.1-3-0.2-5.9-0.4-8.8c0.8,0,1.6,0,2.4,0.1c1.7,2.9,3.4,5.9,5,8.9
			c1.6,0.1,3.3,0.1,4.9,0.2c-2-3.3-4-6.5-6-9.7c1.4-0.5,2.4-1.2,3-2.1c0.6-0.9,0.9-2.1,0.9-3.4c-0.2-4-3.2-6.1-9-6.3
			c-2-0.1-4-0.1-6.1-0.2c0.2,6.8,0.5,13.9,0.8,21.1C259.8,31.8,261.3,31.8,262.7,31.8z M263.7,13.5c1.5,0,2.6,0.3,3.3,0.9
			c0.7,0.5,1.1,1.4,1.1,2.5c0.1,1.2-0.2,2.1-0.8,2.7c-0.6,0.5-1.6,0.8-3,0.8c-0.7,0-1.3,0-2-0.1c-0.1-2.3-0.2-4.5-0.3-6.7
			C262.6,13.5,263.1,13.5,263.7,13.5z M180,271.9c-4.8-3.4-2-10-2-10l-8-6c0,0-5.8,9.2,2,18c7.8,8.8,20,2,20,2l-2-6
			C190,269.9,184.8,275.3,180,271.9z M226,313.9c-8.1,0-14.2,0.7-28,8c16.5-14.1,22-26,22-26s-4.8,4.3-12,6c12.6-12.9,18-26,18-26
			s-2.7,2-12,6c8.9-10.1,12-22,12-22l-8,6c0,0,12-14.6,12-30c0-7-12.5-12-26-12c-13.5,0-34,2-34,2s4.6-4.7,28-10
			c-38.2-1.7-56,10-56,10s9.4-10.5,28-16c-50.3,12.3-66,44-66,44s14.6,0.6,24,8c-6.5-3.1-14-2-14-2s17.3,9,26,18c-9.1-5.6-16-6-16-6
			s14.1,13.1,22,20c7.9,6.9,23,10.4,32,8c-3.1,7.6-12,12-12,12s8.8,0.1,16-6c-5.5,16.6-18,20-18,20s11.5-0.2,16-2
			c-7.3,16.6,2,32,2,32s0.1-12.6,8-20c-4.6,19.6,7.2,33.4,18,38c-12.1-14.5-10.4-30.6-4-38c6.4-7.4,22.8-8,30-8
			c7.2,0,18.5,0.4,30,10C252.3,315.7,234.1,313.9,226,313.9z M182,285.9c-12.2,0-29.4-10.1-38-24c-8.6-13.9-16-12-16-12
			s15.1-10.6,28-6c-3.3-3.9-12-6-12-6s17.9-2.2,34,10c16.1,12.2,17.5,16,24,16c6.5,0,16-8.2,10-22c5.8,8.2,7.5,15.7,0,26
			C204.5,278.1,194.2,285.9,182,285.9z M250,409.9c0,0,11.9-7.6,12-24l-10,4L250,409.9z M438.4,144.4c-2.8-0.7-5.6-1.3-8.4-2
			c-4.7-20-9-38.6-13.1-55.9c2.6,0.5,5.2,1.1,7.8,1.7c-1.4-5.5-2.7-11-4-16.3c-10.2-2.1-20.2-4.1-30.2-5.9c1.1,5.2,2.2,10.5,3.3,16
			c2.5,0.5,5.1,0.9,7.6,1.4c1.2,5.6,2.4,11.3,3.7,17.2c-7.5-1.5-15-2.9-22.4-4.2c-1.1-5.8-2.2-11.4-3.2-16.9c2.5,0.4,5,0.9,7.5,1.3
			c-1.1-5.4-2.1-10.7-3.1-15.9c-9.8-1.7-19.5-3.2-29.1-4.5c0.8,5.1,1.7,10.3,2.5,15.6c2.4,0.4,4.9,0.7,7.4,1.1
			c2.9,16.8,5.9,34.8,9.2,54.1c-2.6-0.4-5.3-0.9-7.9-1.3c1.1,6.7,2.2,13.7,3.3,20.8c10.8,1.8,21.7,3.8,32.7,6.1
			c-1.4-7.2-2.8-14.3-4.2-21.1c-2.7-0.5-5.4-1-8.1-1.5c-1.3-6.7-2.5-13.2-3.7-19.5c7.6,1.4,15.3,2.9,23,4.4c1.4,6.4,2.8,13,4.3,19.8
			c-2.7-0.6-5.5-1.2-8.2-1.7c1.4,6.9,2.9,14,4.4,21.2c11.2,2.4,22.6,5,34.1,7.9C441.9,158.7,440.1,151.5,438.4,144.4z M242,391.9
			l2,8c0,0,5.9-2.9,6-10L242,391.9z M356.6,114.4c-1-3.1-2.7-6.3-5.1-9.5c-2.4-3.2-5.6-6.3-9.6-9.3c-4-2.9-9.1-5.3-15.3-7
			c-9.9-2.8-15.1-6.6-15.6-11.7c-0.2-1.8,0.4-3.4,1.8-4.7c1.4-1.4,3.5-1.9,6.3-1.6c2,0.2,3.7,0.6,5.2,1.1c1.5,0.5,2.9,1.2,4.3,2.1
			c1.3,0.9,2.6,1.9,3.9,3.2c1.3,1.3,2.6,2.7,3.9,4.3c4.9,0.6,9.8,1.2,14.8,1.9c-1.2-8.2-2.4-16.1-3.6-23.8
			c-4.8-0.6-9.5-1.2-14.2-1.8c0.1,1.1,0.3,2.2,0.4,3.2c-2.3-1.5-4.7-2.7-7.3-3.7c-2.6-1-5.6-1.7-9-2c-3.2-0.3-6.1,0-8.7,0.8
			c-2.6,0.9-4.9,2.2-6.7,4c-1.9,1.8-3.3,4.1-4.2,6.7c-0.9,2.7-1.3,5.7-1,9c0.2,2,0.7,4.4,1.5,7.1c0.8,2.7,2.3,5.5,4.4,8.2
			c2.2,2.8,5.1,5.5,8.9,8.1c3.8,2.6,8.8,4.8,15,6.6c1.8,0.5,3.5,1.2,5.4,2c1.8,0.8,3.5,1.7,5.1,2.9c1.6,1.2,3,2.5,4.1,4
			c1.1,1.5,1.8,3.2,2.1,5.2c0.3,2.3-0.4,4.1-2,5.3c-1.6,1.2-3.9,1.6-6.7,1.3c-2.1-0.3-4-0.7-5.7-1.3c-1.7-0.6-3.3-1.4-4.7-2.5
			c-1.4-1-2.9-2.3-4.3-3.7c-1.4-1.5-2.8-3.2-4.3-5.1c-5-0.5-10-1-15-1.4c0.8,9.6,1.6,19.5,2.5,29.8c5.2,0.4,10.3,0.9,15.5,1.5
			c-0.2-1.6-0.3-3.1-0.5-4.6c2.5,1.9,5.4,3.6,8.5,5c3.1,1.4,6.6,2.4,10.5,2.8c3.7,0.5,7,0.2,9.9-0.9c2.9-1.1,5.3-2.7,7.3-5
			c1.9-2.2,3.3-5,4.1-8.3c0.8-3.2,0.9-6.8,0.3-10.7C358.3,120.1,357.6,117.5,356.6,114.4z M287.3,120.9c-7.4-25.1-14.4-47.8-21-68.5
			c-7-0.3-14-0.4-20.9-0.5c-5.4,20.4-10.9,42.8-16.7,67.4c-2.4,0-4.8,0.1-7.2,0.1c-0.1,6.5-0.2,13.2-0.3,20.1
			c10.2-0.2,20.3-0.2,30.5,0c-0.2-6.9-0.3-13.6-0.5-20.1c-2.3,0-4.7-0.1-7-0.1c0.7-3.2,1.4-6.4,2.1-9.5c7.6,0.1,15.2,0.3,22.7,0.6
			c0.9,3.2,1.8,6.4,2.7,9.6c-2.3-0.1-4.7-0.2-7-0.3c0.3,6.5,0.5,13.2,0.8,20.1c10.2,0.4,20.4,1,30.7,1.8c-0.5-6.9-1-13.6-1.5-20.2
			C292.2,121.3,289.8,121.1,287.3,120.9z M250.3,91.9c1.9-8.5,3.8-16.7,5.7-24.6c0.2,0,0.4,0,0.6,0c2.4,8,4.8,16.4,7.3,25
			C259.3,92.1,254.8,92,250.3,91.9z M126.3,126.7c-2.6,0.4-5.2,0.7-7.8,1.1c0.7-5.2,1.4-10.4,2.1-15.4c4.3-0.6,8.6-1.2,12.9-1.7
			c3.3-0.4,6.5-1.6,9.6-3.4c3.1-1.9,5.8-4.2,8.3-7c2.4-2.8,4.4-5.9,5.9-9.4c1.5-3.4,2.4-7,2.8-10.7c0.3-3.6,0-6.9-0.9-9.9
			c-0.9-3-2.2-5.5-4.1-7.5c-1.8-2-4-3.5-6.6-4.5c-2.6-1-5.4-1.3-8.5-0.9c-11.1,1.3-22.2,2.7-33.5,4.4c-0.8,5.1-1.7,10.4-2.6,15.7
			c2.5-0.4,4.9-0.8,7.4-1.1c-2.6,16.7-5.4,34.7-8.4,54c-2.6,0.4-5.3,0.9-7.9,1.3c-1.1,6.8-2.3,13.7-3.4,20.9
			c10.8-1.9,21.5-3.6,32.1-5.1C124.6,140.3,125.5,133.4,126.3,126.7z M125.9,74.2c4.1-0.5,8.2-1,12.3-1.5c2.4-0.3,4.3,0.4,5.8,2.1
			c1.5,1.7,2.1,3.9,1.8,6.7c-0.3,2.8-1.4,5.3-3.4,7.4c-1.9,2.2-4.1,3.4-6.6,3.7c-4.2,0.5-8.4,1-12.6,1.6
			C124.1,87.4,125,80.7,125.9,74.2z M218,411.9h8l-8-8V411.9z M222,391.9l-8-2c0.1,7.1,6,10,6,10L222,391.9z M202,385.9
			c0.1,16.4,12,24,12,24l-2-20L202,385.9z M246,411.9v-8l-8,8H246z M228,399.9l2-6l-6-2C224.2,398.2,228,399.9,228,399.9z
			 M234,393.9l2,6c0,0,3.7-1.7,4-8L234,393.9z M283.9,261.8c0,0,2.8,6.4-2,9.8c-4.8,3.4-9.9-2-9.9-2l-2,5.9c0,0,12.1,6.7,19.9-2
			c7.8-8.6,2-17.6,2-17.6L283.9,261.8z"/>
	</g>
</g>
</svg>
