<?xml version="1.0" encoding="utf-8"?>
<!-- Generator: Adobe Illustrator 18.1.1, SVG Export Plug-In . SVG Version: 6.00 Build 0)  -->
<svg version="1.1" id="Layer_1" xmlns="http://www.w3.org/2000/svg" xmlns:xlink="http://www.w3.org/1999/xlink" x="0px" y="0px"
	 viewBox="65.3 0 464 185.9" enable-background="new 65.3 0 464 185.9" xml:space="preserve">
<g>
	<g>
		<path fill-rule="evenodd" clip-rule="evenodd" fill="#D19D3A" d="M415.5,7.9c0,0-33.3-7.9-118-7.9c-84.7,0-118,7.9-118,7.9
			L156,63.8l283,0.1L415.5,7.9z"/>
	</g>
</g>
<g>
	<g>
		<path fill-rule="evenodd" clip-rule="evenodd" fill="#231F20" d="M515.3,135.9l-10-4l-10-34l10,2l-10-36l-64-14c0,0-31.2-4-66-6
			c-34.1-2-70-2-70-2s-39.8,0-76,2c-37.8,2-72,8-72,8l-2,4c0,0-20.7-4.9-38,12c-29.8,29.2-12,56-12,56l-12,2l-18,60l42-8l2-6
			c0,0,29.4,0.4,38-10c-0.6,3.2-2,4-2,4l54-8l4-30l12-4l-2,30l70-4c0,0,27.7-0.5,54,2c26.7,2.5,52,8,52,8v-6c0,0,22.2,9.1,34,0
			c0.9,3.8,2,8,2,8l104,24L515.3,135.9z"/>
	</g>
</g>
<g>
	<g>
		<path fill-rule="evenodd" clip-rule="evenodd" fill="#FFFFFF" d="M145.3,103.1c-3.3-1.8-8.1-2.7-14.3-2.5
			c-10,0.3-14.5-2.1-13.3-7.5c0.4-1.9,1.6-3.8,3.7-5.7c2-1.9,4.6-3.2,7.6-3.8c2.1-0.4,3.9-0.6,5.4-0.5c1.5,0.1,2.8,0.4,3.9,0.9
			c1.2,0.5,2.2,1.2,3.1,2.2c0.9,0.9,1.9,2.1,2.8,3.4c5.1-0.9,10.2-1.8,15.2-2.7c1.4-8.3,2.8-16.3,4.2-24.1
			c-4.9,0.8-9.7,1.6-14.7,2.4c-0.2,1.1-0.4,2.2-0.6,3.3c-1.9-0.9-4.2-1.4-6.7-1.7c-2.5-0.2-5.6,0-9.3,0.7c-3.4,0.7-6.8,1.9-10,3.6
			c-3.2,1.8-6.2,3.9-9,6.5c-2.8,2.6-5.2,5.5-7.2,8.7c-2,3.3-3.5,6.6-4.3,10.2c-0.5,2.2-0.8,4.6-0.9,7.3c0,2.7,0.7,5.2,2.1,7.6
			c1.5,2.3,3.9,4.3,7.3,5.8c3.4,1.6,8.2,2.2,14.5,2.1c1.8,0,3.5,0.1,5.2,0.3c1.7,0.2,3.3,0.7,4.6,1.4c1.4,0.7,2.4,1.7,3.1,2.9
			c0.7,1.2,0.9,2.9,0.5,4.8c-0.5,2.4-1.8,4.5-4,6.4c-2.2,1.9-4.8,3.1-7.8,3.8c-2.3,0.5-4.2,0.7-5.9,0.6c-1.7-0.1-3.1-0.4-4.4-1
			c-1.3-0.6-2.4-1.5-3.5-2.6c-1.1-1.1-2.1-2.4-3.1-4c-5.5,1.2-11,2.5-16.6,3.9c-2.5,10.3-5.1,21-7.8,32.1c5.8-1.5,11.6-2.9,17.3-4.3
			c0.4-1.6,0.7-3.3,1.1-4.9c2.2,1.2,4.8,1.9,7.9,2.3c3,0.4,6.6,0.1,10.7-0.8c3.9-0.8,7.7-2.4,11.3-4.6c3.6-2.2,6.8-4.9,9.6-8
			c2.8-3.1,5.2-6.5,7.2-10.3c1.9-3.7,3.2-7.6,3.9-11.5c0.3-2,0.5-4.4,0.5-7.4c0-2.9-0.8-5.7-2.2-8.4
			C151,107.2,148.6,105,145.3,103.1z M219.7,62.7c-1.8-2-4-3.5-6.6-4.5c-2.6-1-5.4-1.3-8.5-0.9c-11.1,1.3-22.2,2.7-33.5,4.4
			c-0.8,5.1-1.7,10.4-2.6,15.7c2.5-0.4,4.9-0.8,7.4-1.1c-2.6,16.7-5.4,34.7-8.4,54c-2.6,0.4-5.3,0.9-7.9,1.3
			c-1.1,6.8-2.3,13.7-3.4,20.9c10.8-1.9,21.5-3.6,32.1-5.1c0.9-7,1.8-13.9,2.6-20.6c-2.6,0.4-5.2,0.7-7.8,1.1
			c0.7-5.2,1.4-10.4,2.1-15.4c4.3-0.6,8.6-1.2,12.9-1.7c3.3-0.4,6.5-1.6,9.6-3.4c3.1-1.9,5.8-4.2,8.3-7c2.4-2.8,4.4-5.9,5.9-9.4
			c1.5-3.4,2.5-7,2.8-10.7c0.3-3.6,0-6.9-0.9-9.9C222.9,67.2,221.5,64.7,219.7,62.7z M210.2,81.5c-0.3,2.8-1.4,5.3-3.4,7.4
			c-1.9,2.2-4.1,3.4-6.6,3.7c-4.2,0.5-8.4,1-12.6,1.6c0.9-6.9,1.9-13.6,2.7-20.1c4.1-0.5,8.2-1,12.3-1.5c2.4-0.3,4.3,0.4,5.8,2.1
			C209.9,76.5,210.5,78.8,210.2,81.5z M264.3,120c-5,0.2-10,0.5-15,0.8c1.1-18.7,2.1-36.2,3-52.5c2.3-0.1,4.7-0.3,7-0.4
			c0.3-5.2,0.5-10.3,0.7-15.2c-9.2,0.4-18.4,1-27.6,1.8c-0.4,5-0.9,10.1-1.3,15.3c2.4-0.2,4.7-0.4,7.1-0.6
			c-1.2,16.3-2.6,33.9-4,52.7c-2.5,0.2-5,0.4-7.6,0.7c-0.6,6.6-1.1,13.4-1.7,20.3c18-1.7,36-2.8,53.8-3.3
			c0.2-10.2,0.4-20.1,0.6-29.6c-4.9,0.1-9.8,0.3-14.7,0.5C264.5,113.7,264.4,116.8,264.3,120z M351.8,120.9
			c-7.4-25.1-14.4-47.8-21-68.5c-7-0.3-14-0.4-20.9-0.5c-5.4,20.4-10.9,42.8-16.7,67.4c-2.4,0-4.8,0.1-7.2,0.1
			c-0.1,6.5-0.2,13.2-0.3,20.1c10.2-0.2,20.3-0.2,30.5,0c-0.2-6.9-0.3-13.6-0.5-20.1c-2.3,0-4.7-0.1-7-0.1c0.7-3.2,1.4-6.4,2.1-9.5
			c7.6,0.1,15.2,0.3,22.7,0.6c0.9,3.2,1.8,6.4,2.7,9.6c-2.3-0.1-4.7-0.2-7-0.3c0.3,6.5,0.5,13.2,0.8,20.1c10.2,0.4,20.4,1,30.7,1.8
			c-0.5-6.9-1-13.6-1.5-20.2C356.7,121.3,354.2,121.1,351.8,120.9z M314.7,91.9c1.9-8.5,3.8-16.7,5.7-24.6c0.2,0,0.4,0,0.6,0
			c2.4,8,4.8,16.4,7.3,25C323.8,92.1,319.3,92,314.7,91.9z M421.1,114.4c-1-3.1-2.7-6.3-5.1-9.5c-2.4-3.2-5.6-6.3-9.6-9.3
			c-4-2.9-9.1-5.3-15.3-7c-9.9-2.8-15.1-6.6-15.6-11.7c-0.2-1.8,0.4-3.4,1.8-4.7c1.4-1.4,3.5-1.9,6.3-1.6c2,0.2,3.7,0.6,5.2,1.1
			c1.5,0.5,2.9,1.2,4.3,2.1c1.3,0.9,2.6,1.9,3.9,3.2c1.3,1.3,2.6,2.7,3.9,4.3c4.9,0.6,9.8,1.2,14.8,1.9c-1.2-8.2-2.4-16.1-3.6-23.8
			c-4.8-0.6-9.5-1.2-14.2-1.8c0.1,1.1,0.3,2.2,0.4,3.2c-2.3-1.5-4.7-2.7-7.3-3.7c-2.6-1-5.6-1.7-9-2c-3.2-0.3-6.1,0-8.7,0.8
			c-2.6,0.9-4.9,2.2-6.7,4c-1.9,1.8-3.3,4.1-4.2,6.7c-0.9,2.7-1.3,5.7-1,9c0.2,2,0.7,4.4,1.5,7.1c0.8,2.7,2.3,5.5,4.4,8.2
			c2.2,2.8,5.1,5.5,8.9,8.1c3.8,2.6,8.8,4.8,15,6.6c1.8,0.5,3.5,1.2,5.4,2c1.8,0.8,3.5,1.7,5.1,2.9c1.6,1.2,3,2.5,4.1,4
			c1.1,1.5,1.8,3.2,2.1,5.2c0.3,2.3-0.4,4.1-2,5.3c-1.6,1.2-3.9,1.6-6.7,1.3c-2.1-0.3-4-0.7-5.7-1.3c-1.7-0.6-3.3-1.4-4.7-2.5
			c-1.4-1-2.9-2.3-4.3-3.7c-1.4-1.5-2.8-3.2-4.3-5.1c-5-0.5-10-1-15-1.4c0.8,9.6,1.6,19.5,2.5,29.8c5.2,0.4,10.3,0.9,15.5,1.5
			c-0.2-1.6-0.3-3.1-0.5-4.6c2.5,1.9,5.4,3.6,8.5,5c3.1,1.4,6.6,2.4,10.5,2.8c3.7,0.5,7,0.2,9.9-0.9c2.9-1.1,5.3-2.7,7.3-5
			c1.9-2.2,3.3-5,4.1-8.3c0.8-3.2,0.9-6.8,0.3-10.7C422.7,120.1,422.1,117.5,421.1,114.4z M502.9,144.4c-2.8-0.7-5.6-1.3-8.4-2
			c-4.7-20-9-38.6-13.1-55.9c2.6,0.5,5.2,1.1,7.8,1.7c-1.4-5.5-2.7-11-4-16.3C475,69.8,465,67.8,455,66c1.1,5.2,2.2,10.5,3.3,16
			c2.5,0.5,5.1,0.9,7.6,1.4c1.2,5.6,2.4,11.3,3.7,17.2c-7.5-1.5-15-2.9-22.4-4.2c-1.1-5.8-2.2-11.4-3.2-16.9c2.5,0.4,5,0.9,7.5,1.3
			c-1.1-5.4-2.1-10.7-3.1-15.9c-9.8-1.7-19.5-3.2-29.1-4.5c0.8,5.1,1.7,10.3,2.5,15.6c2.4,0.4,4.9,0.7,7.4,1.1
			c2.9,16.8,5.9,34.8,9.2,54.1c-2.6-0.4-5.3-0.9-7.9-1.3c1.1,6.7,2.2,13.7,3.3,20.8c10.8,1.8,21.7,3.8,32.7,6.1
			c-1.4-7.2-2.8-14.3-4.2-21.1c-2.7-0.5-5.4-1-8.1-1.5c-1.3-6.7-2.5-13.2-3.7-19.5c7.6,1.4,15.3,2.9,23,4.4c1.4,6.4,2.8,13,4.3,19.8
			c-2.7-0.6-5.5-1.2-8.2-1.7c1.4,6.9,2.9,14,4.4,21.2c11.2,2.4,22.6,5,34.1,7.9C506.4,158.7,504.6,151.5,502.9,144.4z M185.5,37
			c1.4,0.7,3,1,5,0.8c1.4-0.2,2.7-0.5,3.9-1.2c1.2-0.6,2.2-1.4,3.1-2.2c-0.6-0.7-1.3-1.4-1.9-2.2c-0.8,0.6-1.6,1.1-2.2,1.5
			c-0.7,0.4-1.4,0.6-2.3,0.7c-1.6,0.2-2.8-0.4-3.6-1.6c-0.8-1.2-1-3.2-0.6-6c0.3-2.8,1-4.9,2.1-6.2c1-1.3,2.4-2.1,3.9-2.2
			c1.4-0.1,2.6,0.2,3.8,1c0.8-0.8,1.6-1.6,2.4-2.5c-0.9-0.6-1.8-1.1-2.8-1.3c-1-0.3-2.1-0.3-3.4-0.2c-1.8,0.2-3.5,0.8-5,1.7
			c-1.5,1-2.8,2.3-3.8,4c-1,1.7-1.7,3.8-2,6.2c-0.3,2.5-0.2,4.5,0.4,6.2C183.1,35.1,184.1,36.3,185.5,37z M211.3,30.1
			c2.3-0.2,4.6-0.4,6.9-0.6c0.3,1.7,0.6,3.4,0.9,5.1c1.6-0.1,3.1-0.2,4.7-0.4c-1.6-7.2-3.2-14.1-4.8-20.8c-1.8,0.1-3.6,0.3-5.4,0.4
			c-2.8,7.1-5.7,14.4-8.7,22c1.5-0.1,3.1-0.3,4.6-0.4C210.1,33.7,210.7,31.9,211.3,30.1z M215.9,16.6c0.6,3.3,1.2,6.6,1.8,10
			c-1.8,0.1-3.6,0.3-5.4,0.4C213.5,23.5,214.7,20,215.9,16.6z M246.4,29.4c-2.8,0.1-5.6,0.3-8.4,0.5c0.4-6.1,0.7-12.1,1.1-17.8
			c-1.5,0.1-2.9,0.2-4.4,0.3c-0.5,6.9-0.9,13.9-1.4,21.3c4.2-0.3,8.3-0.5,12.5-0.7C246,31.7,246.2,30.6,246.4,29.4z M261.4,11
			c-1.4,0.1-2.9,0.1-4.3,0.2c-0.3,6.8-0.6,13.9-0.9,21.2c1.5-0.1,3-0.1,4.5-0.2C260.9,24.9,261.1,17.8,261.4,11z M272.5,31.8
			c1.5,0,3-0.1,4.4-0.1c0.1-3.1,0.1-6.1,0.2-9.1c2.1,0,4.2-0.1,6.4-0.1c0-1,0-2,0-2.9c-2.1,0-4.2,0.1-6.3,0.1c0-2.1,0.1-4.2,0.1-6.3
			c2.4-0.1,4.8-0.1,7.2-0.1c0.2-0.9,0.3-1.9,0.5-2.8c-4,0.1-8,0.1-12,0.2C272.9,17.4,272.7,24.5,272.5,31.8z M302.5,31.9
			c3,0,5.2-1,6.9-2.9c1.6-1.9,2.4-4.7,2.3-8.3c-0.1-3.6-1-6.3-2.6-8.1c-1.7-1.8-3.9-2.7-6.8-2.7c-2.9,0-5.1,0.9-6.7,2.7
			c-1.6,1.8-2.4,4.5-2.4,8c0,3.6,0.8,6.4,2.5,8.3C297.3,30.9,299.6,31.9,302.5,31.9z M298.8,14.6c0.8-1.2,1.9-1.8,3.5-1.8
			c1.6,0,2.8,0.6,3.6,1.8c0.8,1.2,1.2,3.2,1.3,6c0.1,2.9-0.3,5-1.1,6.2c-0.8,1.3-1.9,1.9-3.6,1.9c-1.5,0-2.7-0.7-3.5-1.9
			c-0.8-1.3-1.2-3.3-1.3-6.2C297.7,17.8,298,15.8,298.8,14.6z M327.2,31.8c-0.1-3-0.2-5.9-0.4-8.8c0.8,0,1.6,0,2.4,0.1
			c1.7,2.9,3.4,5.9,5,8.9c1.6,0.1,3.3,0.1,4.9,0.2c-2-3.3-4-6.5-6-9.7c1.4-0.5,2.4-1.2,3-2.1c0.6-0.9,0.9-2.1,0.9-3.4
			c-0.2-4-3.2-6.1-9-6.3c-2-0.1-4-0.1-6.1-0.2c0.2,6.8,0.5,13.9,0.8,21.1C324.2,31.8,325.7,31.8,327.2,31.8z M328.2,13.5
			c1.5,0,2.6,0.3,3.3,0.9c0.7,0.5,1.1,1.4,1.1,2.5c0.1,1.2-0.2,2.1-0.8,2.7c-0.6,0.5-1.6,0.8-3,0.8c-0.7,0-1.3,0-2-0.1
			c-0.1-2.3-0.2-4.5-0.3-6.7C327,13.5,327.6,13.5,328.2,13.5z M353,32.9c-0.2-3.1-0.4-6.1-0.6-9.1c-0.2-2.2-0.5-4.8-1-7.6
			c-0.1-0.3-0.1-0.5-0.2-0.8c2.7,5.8,5.4,11.7,8.2,17.8c1.9,0.1,3.8,0.2,5.7,0.4c-0.6-7.3-1.2-14.4-1.8-21.3
			c-1.3-0.1-2.6-0.2-3.9-0.2c0.3,3.2,0.5,6.5,0.8,9.8c0.1,1.3,0.3,2.7,0.5,4.1c0.2,1.4,0.5,2.5,0.7,3.3c-2.8-6-5.5-11.9-8.3-17.6
			c-1.8-0.1-3.7-0.2-5.5-0.3c0.5,6.8,0.9,13.9,1.4,21.2C350.3,32.8,351.6,32.9,353,32.9z M381.7,34.9c-0.8-7.4-1.5-14.5-2.2-21.4
			c-1.5-0.1-2.9-0.2-4.4-0.3c0.7,6.9,1.4,14,2.1,21.3C378.7,34.7,380.2,34.8,381.7,34.9z M396.6,31.2c2.3,0.2,4.7,0.5,7,0.7
			c0.7,1.8,1.3,3.6,2,5.3c1.6,0.2,3.2,0.3,4.7,0.5c-3.2-7.7-6.4-15.1-9.5-22.2c-1.8-0.2-3.6-0.4-5.4-0.5c-1.4,6.7-2.8,13.6-4.1,20.8
			c1.5,0.1,3.1,0.3,4.6,0.4C396.2,34.5,396.4,32.8,396.6,31.2z M398.5,18.2c1.3,3.4,2.7,6.9,4,10.5c-1.8-0.2-3.6-0.4-5.4-0.5
			C397.5,24.8,398,21.5,398.5,18.2z"/>
	</g>
</g>
</svg>
