<?xml version="1.0" encoding="utf-8"?>
<!-- Generator: Adobe Illustrator 16.0.0, SVG Export Plug-In . SVG Version: 6.00 Build 0)  -->
<!DOCTYPE svg PUBLIC "-//W3C//DTD SVG 1.1//EN" "http://www.w3.org/Graphics/SVG/1.1/DTD/svg11.dtd">
<svg version="1.1" id="Layer_1" xmlns="http://www.w3.org/2000/svg" xmlns:xlink="http://www.w3.org/1999/xlink" x="0px" y="0px"
	 width="132.571px" height="141.5px" viewBox="0 0 132.571 141.5" enable-background="new 0 0 132.571 141.5" xml:space="preserve">
<path fill="#E21E22" d="M65.906,0C33.917,0,7.986,25.93,7.986,57.919c0,20.29,10.435,38.139,26.226,48.484h63.386
	c15.793-10.345,26.229-28.194,26.229-48.484C123.826,25.93,97.895,0.001,65.906,0L65.906,0L65.906,0z"/>
<polygon fill="#E21E22" points="125.332,57.927 129.524,47.832 100.925,47.832 100.925,68.009 129.528,68.009 "/>
<polygon fill="#E21E22" points="2.425,47.832 6.622,57.927 2.421,68.009 31.027,68.009 31.027,47.832 "/>
<path fill="#FEFEFE" d="M65.906,15.702c-23.317,0-42.219,18.901-42.219,42.217s18.901,42.219,42.219,42.219
	c23.316,0,42.215-18.902,42.215-42.219S89.223,15.702,65.906,15.702L65.906,15.702z"/>
<polygon fill="#FEFEFE" points="4.736,49.372 8.29,57.929 4.733,66.47 29.487,66.47 29.487,49.372 "/>
<polygon fill="#FEFEFE" points="123.662,57.929 127.216,49.372 102.464,49.372 102.464,66.47 127.218,66.47 "/>
<path fill="#E21E22" d="M65.906,20.751c-20.528,0-37.17,16.641-37.17,37.168c0,20.528,16.641,37.168,37.17,37.168
	s37.168-16.64,37.168-37.168C103.074,37.392,86.435,20.751,65.906,20.751L65.906,20.751z"/>
<path fill="#C41A23" d="M32.672,41.264c-2.516,5.01-3.936,10.667-3.936,16.655c0,20.528,16.641,37.168,37.17,37.168
	c10.104,0,19.267-4.034,25.968-10.578c-2.042,0.233-4.115,0.357-6.22,0.357C59.393,84.866,37.512,66.109,32.672,41.264
	L32.672,41.264z"/>
<path fill="#151515" d="M83.169,92.097l-2.894-1.065c5.761-15.655,5.18-33.592-1.554-49.464c-1.521,0.156-3.071,0.392-4.65,0.701
	c4.235,12.318-3.629,20.66-11.243,28.737c-6.064,6.43-11.789,12.506-11.513,20.354l-3.083,0.109
	c-0.32-9.137,6.12-15.969,12.352-22.579c7.35-7.796,14.307-15.178,10.458-25.938c-0.152,0.038-0.304,0.078-0.456,0.118
	C54.492,47.296,39.13,58.477,32.356,70.889l-2.704-1.477c7.148-13.101,23.263-24.876,40.112-29.314
	c-4.304-7.604-12.833-6.229-23.421-3.62c-4.791,1.181-8.573,2.117-11.136,1.143l1.095-2.883c1.655,0.622,5.368-0.286,9.304-1.253
	c9.175-2.262,21.641-5.332,27.262,5.883c1.519-0.317,3.022-0.565,4.5-0.748c-4.159-8.144-11.186-13.944-19.067-15.65l0.652-3.014
	c9.14,1.98,17.214,8.827,21.703,18.367c1.084-0.062,2.153-0.091,3.211-0.073c-1.388-5.785,0.473-7.722,2.859-9.435
	c0.438-0.313,0.883-0.624,1.271-1.021l2.202,2.157c-0.516,0.527-1.097,0.953-1.674,1.37c-1.656,1.187-2.876,2.064-1.434,7.092
	c5.416,0.479,10.314,2.018,14.434,4.584l-1.632,2.617c-3.346-2.085-7.287-3.418-11.653-3.979
	c2.884,6.577,8.361,10.964,12.467,14.256c1.329,1.065,2.499,2.004,3.382,2.852l-2.131,2.226c-0.83-0.794-1.933-1.671-3.178-2.671
	c-4.409-3.532-10.982-8.8-13.974-16.941c-0.937-0.035-1.881-0.037-2.836-0.006C88.619,57.691,89.078,76.034,83.169,92.097z"/>
<path fill="#151515" d="M65.906,22.292c-9.838,0-18.747,3.989-25.192,10.436C34.267,39.174,30.28,48.082,30.28,57.919
	s3.986,18.746,10.434,25.192c6.447,6.447,15.354,10.435,25.192,10.435c9.837,0,18.746-3.988,25.19-10.435
	c6.447-6.446,10.436-15.354,10.436-25.192s-3.988-18.745-10.436-25.192C84.652,26.281,75.743,22.292,65.906,22.292L65.906,22.292
	L65.906,22.292z M38.532,30.545c7.008-7.003,16.686-11.337,27.374-11.337c10.689,0,20.368,4.335,27.371,11.337
	c7.006,7.007,11.339,16.685,11.339,27.374c0,10.689-4.335,20.369-11.339,27.374C86.275,92.297,76.595,96.63,65.906,96.63
	S45.54,92.297,38.532,85.292c-7.005-7.005-11.337-16.684-11.337-27.374C27.196,47.23,31.527,37.552,38.532,30.545L38.532,30.545z"/>
<path fill="#FBCFB0" d="M36.685,38.982c6.248-0.058,14.41-3.467,21.328-3.573c3.902-0.059,7.293,0.659,10.041,4.033l-2.315,0.724
	c-3.006-3.432-8.026-3.921-13.646-2.99c-5.255,0.874-10.778,2.719-15.964,2.778L36.685,38.982z"/>
<path fill="#FBCFB0" d="M55.526,73.016c7.466-6.764,17.94-19.506,14.622-28.828l-2.021,0.612c4.124,8.775-6.1,20.283-12.642,28.185
	L55.526,73.016z"/>
<path fill="#FBCFB0" d="M74.231,38.276l1.868-0.307C71.047,29.476,65.2,25.371,58.524,23.522l-0.476,0.135
	C66.624,26.868,70.802,31.341,74.231,38.276L74.231,38.276z"/>
<path fill="#FBCFB0" d="M76.748,42.713l1.439-0.199c3.597,8.418,7.071,24.261,3.487,41.637l-0.397-0.172
	C83.903,63.07,79.768,50.71,76.748,42.713L76.748,42.713z"/>
<path fill="#FBCFB0" d="M83.054,37.6l-1.675,0.053c-0.714-1.649-0.445-6.922,3.772-8.857l0.359,0.187
	C83.628,30.015,81.756,33.672,83.054,37.6L83.054,37.6z"/>
<path fill="#FBCFB0" d="M84.285,41.986l-1.29,0.051c2.812,8.087,11.829,16.175,17.557,19.187l0.018-0.418
	C91.457,54.604,86.188,47.79,84.285,41.986L84.285,41.986z"/>
<polygon fill="#151515" points="6.276,50.4 28.459,50.4 28.459,65.441 6.276,65.441 9.405,57.929 "/>
<polygon fill="#151515" points="125.676,50.4 103.495,50.4 103.495,65.441 125.676,65.441 122.55,57.929 "/>
<path fill="#FFFFFF" d="M17.179,58.19c0.111-0.054,0.19-0.114,0.242-0.176c0.051-0.063,0.074-0.149,0.074-0.258v-2.78
	c-0.002-0.554-0.147-0.973-0.438-1.262c-0.287-0.286-0.708-0.429-1.257-0.432h-1.319c-0.555,0.002-0.975,0.146-1.26,0.432
	c-0.29,0.29-0.433,0.709-0.435,1.264v1.249c0,0.058,0.016,0.105,0.043,0.137c0.033,0.033,0.08,0.052,0.146,0.052H14.2
	c0.059,0,0.106-0.019,0.135-0.052c0.034-0.032,0.053-0.079,0.053-0.137v-0.918c0-0.155,0.039-0.271,0.115-0.352
	c0.079-0.078,0.196-0.119,0.355-0.119h0.566c0.148,0,0.262,0.042,0.345,0.119c0.081,0.081,0.123,0.199,0.125,0.352v1.742
	l-2.802,1.507c-0.11,0.056-0.189,0.115-0.237,0.178c-0.045,0.063-0.07,0.149-0.068,0.258v3.472c0,0.077,0.021,0.134,0.061,0.174
	c0.042,0.04,0.099,0.062,0.176,0.062h4.236c0.076,0,0.137-0.021,0.175-0.062c0.04-0.04,0.061-0.096,0.061-0.174v-1.801
	c0-0.078-0.021-0.136-0.061-0.175c-0.038-0.04-0.1-0.06-0.176-0.06h-1.128c-0.077,0-0.137,0.02-0.174,0.06
	c-0.044,0.039-0.063,0.097-0.063,0.175v0.483h-1.272c-0.075,0-0.135-0.02-0.174-0.061c-0.042-0.038-0.061-0.1-0.061-0.176v-1.025
	c0-0.063,0.012-0.116,0.037-0.161c0.028-0.046,0.068-0.086,0.127-0.121L17.179,58.19L17.179,58.19z M18.672,61.003
	c0.002,0.556,0.145,0.976,0.434,1.26c0.288,0.291,0.707,0.432,1.262,0.435h1.318c0.556-0.003,0.976-0.144,1.264-0.435
	c0.287-0.285,0.429-0.704,0.432-1.26v-6.028c-0.002-0.554-0.145-0.973-0.432-1.262c-0.288-0.286-0.708-0.43-1.264-0.432h-1.318
	c-0.555,0.002-0.974,0.146-1.262,0.432c-0.289,0.29-0.432,0.709-0.434,1.264V61.003L18.672,61.003z M20.71,61.18
	c-0.154,0-0.272-0.04-0.353-0.117c-0.078-0.078-0.119-0.195-0.119-0.354v-5.438c0-0.153,0.041-0.27,0.119-0.349
	c0.08-0.081,0.198-0.122,0.353-0.122h0.681c0.154,0,0.271,0.041,0.352,0.122c0.081,0.079,0.12,0.197,0.12,0.349v5.438
	c0,0.159-0.039,0.276-0.12,0.354c-0.08,0.078-0.199,0.117-0.352,0.117H20.71z"/>
<path fill="#151515" d="M4.085,116.138c-0.521-0.426-0.982-0.87-1.382-1.325c-0.456-0.516-0.864-1.096-1.224-1.74
	c-0.351-0.634-0.637-1.291-0.853-1.968c-0.207-0.656-0.363-1.405-0.472-2.243C0.051,108.051,0,107.236,0,106.41
	c0-1.688,0.202-3.221,0.605-4.587c0.226-0.763,0.524-1.461,0.898-2.093c0.387-0.654,0.851-1.24,1.395-1.761
	c0.557-0.534,1.205-0.982,1.946-1.346c0.693-0.34,1.454-0.598,2.275-0.771c0.767-0.162,1.622-0.246,2.566-0.26
	c0.907-0.012,1.854,0.042,2.844,0.155c0.898,0.102,1.798,0.267,2.693,0.482c0.907,0.219,1.774,0.489,2.601,0.802
	c0.834,0.316,1.603,0.66,2.301,1.03l0.272,0.146c0.452-0.557,1.145-0.916,1.918-0.916c0.152,0,0.301,0.015,0.446,0.04
	c3.8,0.371,7.956,0.757,12.659,1.165c2.08,0.178,6.035,1.551,7.51,3.137l-0.004-2.435c2.149,0.149,5.357,0.265,7.319,0.383
	c3.793,0.23,6.533,0.375,6.702,0.42c1.054,0.287,1.816,1.254,1.815,2.381v4.374c0,1.363-1.104,2.466-2.466,2.466
	c-0.058,0-0.112-0.002-0.168-0.005v3.542v1.084l0.104-0.002c0.062,0,0.121,0.002,0.18,0.007c0.883-0.014,1.768-0.025,2.649-0.036
	v-0.011c0.075,0,0.151,0.002,0.224,0.009l2.639-0.03v-0.009c0.349-0.005,0.682,0.065,0.983,0.192l1.223-4.05l0.557-1.844
	c0.357-1.185,0.726-2.406,1.883-6.199l2.351,0.714l-2.358-0.72c0.338-1.111,1.392-1.809,2.502-1.744
	c1.609-0.044,3.272-0.102,4.98-0.17c1.677-0.066,3.413-0.144,5.202-0.234v-0.007c1.226-0.061,2.287,0.782,2.534,1.944
	c0.168,0.574,0.408,1.394,1.159,3.969l0.767,2.64v-0.107c0-0.664,0.057-1.309,0.166-1.932l0,0l0,0h-0.002
	c0.007-0.048,0.017-0.093,0.028-0.14c0.108-0.574,0.271-1.135,0.48-1.682c0.241-0.624,0.567-1.213,0.971-1.766
	c0.395-0.542,0.848-1.031,1.361-1.471c0.504-0.435,1.091-0.829,1.758-1.186c0.626-0.333,1.315-0.627,2.065-0.88
	c0.736-0.249,1.548-0.456,2.429-0.621c0.889-0.167,1.817-0.292,2.781-0.377c0.875-0.075,1.771-0.101,2.69-0.077
	c0.892,0.024,1.76,0.102,2.605,0.233c0.88,0.137,1.677,0.316,2.38,0.537c0.109,0.034,0.217,0.069,0.322,0.105
	c0.412-0.75,1.2-1.263,2.109-1.282c1.803-0.178,3.607-0.363,5.414-0.545V97.07h0.002v-0.007c0.06-0.005,0.116-0.009,0.176-0.012
	c1.673-0.171,3.46-0.356,5.433-0.565V96.48c0.504-0.054,0.987,0.048,1.403,0.266l-0.044-0.409c1.69-0.188,3.509-0.401,5.581-0.659
	c1.959-0.242,3.827-0.489,5.565-0.74l-0.001-0.006c1.349-0.193,2.601,0.742,2.793,2.088c0.021,0.135,0.029,0.267,0.026,0.398v6.439
	c0,1.104-0.725,2.039-1.727,2.353v6.504v6.575c1.037,0.324,1.738,1.298,1.727,2.377v6.459c0,1.363-1.104,2.468-2.465,2.468
	c-0.197,0-0.388-0.023-0.572-0.067c-1.853-0.313-3.636-0.575-5.366-0.807c-1.641-0.217-3.56-0.445-5.571-0.674l0.048-0.404h-0.002
	l-0.046,0.407c-0.232-0.026-0.452-0.084-0.658-0.168c-0.141,0.024-0.283,0.036-0.431,0.036c-0.151,0-0.297-0.012-0.438-0.04
	c-1.953-0.204-3.766-0.391-5.423-0.559c-3.604-0.362-6.186-0.653-6.441-0.777c-0.714-0.345-1.226-1.02-1.359-1.812
	c-1.014,0.659-2.188,1.112-3.518,1.367c-1.408,0.27-2.993,0.326-4.753,0.177c-0.941-0.078-1.875-0.199-2.803-0.357
	c-0.9-0.153-1.8-0.351-2.699-0.586c-0.876-0.231-1.665-0.464-2.359-0.698l-0.34-0.121c-0.434,0.387-1.008,0.622-1.636,0.622
	c-0.109,0-0.216-0.007-0.321-0.021c-1.904-0.115-3.724-0.22-5.437-0.312c-1.939-0.106-3.813-0.199-5.604-0.28l0.018-0.389
	l-0.003,0.004l-0.019,0.392c-0.226-0.008-0.44-0.049-0.645-0.115c-0.195,0.051-0.401,0.076-0.614,0.076
	c-0.095,0-0.188-0.005-0.282-0.015c-1.581-0.046-3.134-0.079-4.646-0.095c-1.622-0.017-3.244-0.019-4.864,0v0.008
	c-0.162,0.003-0.322-0.011-0.477-0.039c-0.168,0.036-0.344,0.056-0.523,0.056l-0.11-0.003c-2.866,0.104-5.802,0.238-8.793,0.396
	c-2.882,0.151-5.88,0.333-8.979,0.541v0.003c-1.359,0.09-2.535-0.937-2.625-2.296c-0.005-0.056-0.006-0.11-0.006-0.165v-0.025
	v-4.663c0-1.1,0.72-2.032,1.714-2.35v-2.158c-0.242,0.268-0.508,0.525-0.801,0.771c-0.491,0.415-1.005,0.76-1.549,1.036
	c-0.529,0.27-1.118,0.494-1.768,0.674c-0.573,0.158-1.186,0.28-1.833,0.367c-0.29,0.039-0.592,0.07-0.901,0.093
	c0.576,0.423,0.961,1.093,1,1.863l0.002,0.122v0.003v4.99l0.083,2.345l-2.337,0.112c-3.241,0.285-5.319,0.471-6.255,0.558
	c-1.949,0.182-4.03,0.382-6.238,0.598v0.009c-1.137,0.111-2.169-0.57-2.551-1.591c-0.936,0.824-2.027,1.5-3.273,2.024
	c-1.379,0.58-2.964,0.977-4.751,1.183c-0.938,0.108-1.905,0.167-2.896,0.168c-0.938,0.001-1.862-0.055-2.769-0.168
	c-0.959-0.122-1.791-0.271-2.493-0.451v-0.003v0.003l-0.129-0.036c-0.757-0.199-1.43-0.435-2.011-0.707l0.405-0.871v0l-0.407,0.871
	c-0.896-0.418-1.424-1.307-1.424-2.235v-0.03v-7.715c0-1.361,1.104-2.466,2.465-2.466l0.066,0.001L4.085,116.138z"/>
<path fill="#FFFFFF" d="M12.298,120.24c0.61-0.038,1.046-0.185,1.307-0.435c0.261-0.248,0.398-0.608,0.398-1.071
	c0-0.33-0.111-0.612-0.323-0.85c-0.212-0.24-0.646-0.514-1.307-0.816c-1.367-0.625-2.579-1.231-3.61-1.832
	c-1.033-0.602-1.891-1.298-2.563-2.062c-0.683-0.776-1.196-1.692-1.531-2.747c-0.337-1.065-0.498-2.347-0.498-3.847
	c0-1.427,0.162-2.693,0.485-3.789c0.323-1.095,0.859-1.997,1.594-2.701c0.732-0.703,1.718-1.185,2.937-1.442
	c1.22-0.256,2.714-0.271,4.507-0.065c1.617,0.186,3.148,0.567,4.581,1.11c1.429,0.54,2.626,1.171,3.571,1.897
	c0,1.966,0,3.931,0,5.897c-1.954-0.084-3.909-0.167-5.861-0.251c0-0.667-0.15-1.128-0.448-1.389c-0.3-0.26-0.66-0.401-1.083-0.424
	c-0.622-0.036-1.06,0.033-1.332,0.217c-0.274,0.183-0.41,0.525-0.41,1.022c0,0.404,0.148,0.708,0.436,0.908
	c0.284,0.202,0.722,0.426,1.307,0.684c1.071,0.471,2.09,0.972,3.049,1.472c0.957,0.501,1.802,1.107,2.527,1.801
	c0.729,0.701,1.301,1.528,1.717,2.49c0.417,0.962,0.635,2.139,0.635,3.538c0,2.843-0.792,5.009-2.352,6.563
	c-1.564,1.56-3.847,2.534-6.87,2.884c-1.707,0.199-3.362,0.21-4.941,0.01c-1.582-0.202-2.852-0.524-3.797-0.964
	c0-2.511,0-5.026,0-7.538c2.041-0.101,4.095-0.201,6.147-0.294c0,0.721,0.112,1.252,0.336,1.588S11.589,120.283,12.298,120.24
	L12.298,120.24z M33.944,110.932c0.511,0.007,0.92-0.139,1.194-0.428c0.285-0.299,0.424-0.779,0.424-1.447c0-0.357,0-0.714,0-1.07
	c0-0.669-0.139-1.163-0.411-1.473c-0.273-0.31-0.674-0.478-1.207-0.504c-0.323-0.017-0.646-0.031-0.959-0.046
	c0,1.652,0,3.304,0,4.957C33.298,110.922,33.62,110.929,33.944,110.932L33.944,110.932z M35.674,124.286
	c-4.07,0.359-8.129,0.738-12.186,1.135c0-1.776,0-3.556,0-5.335c0.56-0.036,1.119-0.065,1.681-0.1c0-2.406,0-4.815,0-7.221
	c0-2.406,0-4.818,0-7.227c-0.562-0.031-1.121-0.061-1.681-0.096c0-1.778,0-3.556,0-5.335c4.183,0.408,8.365,0.798,12.548,1.161
	c1.131,0.098,2.164,0.306,3.086,0.619c0.92,0.313,1.691,0.754,2.327,1.329c0.633,0.571,1.12,1.286,1.469,2.149
	c0.349,0.859,0.511,1.882,0.511,3.078c0,1.212-0.161,2.234-0.511,3.066c-0.348,0.832-0.834,1.513-1.469,2.047
	c-0.636,0.534-1.407,0.929-2.327,1.185c-0.921,0.256-1.955,0.39-3.086,0.411c-1.021,0.019-2.043,0.038-3.051,0.06
	c0,1.451,0,2.904,0,4.353c0.896-0.046,1.792-0.092,2.688-0.137C35.674,121.049,35.674,122.666,35.674,124.286L35.674,124.286z
	 M44.498,101.931c4.021,0.279,8.042,0.527,12.063,0.729c0,1.42,0,2.841,0,4.257c-0.858-0.024-1.719-0.049-2.563-0.074
	c0,1.971,0,3.946,0,5.916c0,1.972,0,3.944,0,5.917c0.834-0.026,1.667-0.049,2.501-0.077c0-0.792,0-1.589,0-2.387
	c1.854-0.028,3.709-0.049,5.564-0.067c0,1.088,0,2.176,0,3.261c0,1.085,0,2.173,0,3.259c-5.862,0.21-11.713,0.527-17.564,0.917
	c0-1.518,0-3.042,0-4.563c0.549-0.021,1.109-0.043,1.668-0.069c0-2.061,0-4.126,0-6.19c0-2.062,0-4.126,0-6.192
	c-0.559-0.025-1.119-0.046-1.668-0.071C44.498,104.977,44.498,103.457,44.498,101.931L44.498,101.931z M73.899,118.557
	c0.56,0.008,1.12,0.025,1.68,0.04c-0.161-0.698-0.323-1.393-0.473-2.091c-1.257-0.018-2.514-0.031-3.771-0.043
	c-0.148,0.68-0.299,1.361-0.448,2.038c0.562,0.012,1.121,0.021,1.679,0.031c0,1.408,0,2.812,0,4.216
	c-3.185-0.093-6.371-0.136-9.557-0.1c0-1.39,0-2.777,0-4.169c0.373-0.003,0.747-0.007,1.12-0.01c0.783-2.602,1.567-5.2,2.352-7.794
	c0.786-2.6,1.567-5.208,2.365-7.818c3.385-0.095,6.771-0.23,10.17-0.401c0.783,2.671,1.57,5.366,2.352,8.085
	c0.788,2.742,1.57,5.514,2.364,8.307c0.374,0.011,0.748,0.025,1.122,0.04c0,1.498,0,2.992,0,4.487
	c-3.66-0.225-7.307-0.421-10.954-0.587C73.899,121.376,73.899,119.967,73.899,118.557L73.899,118.557z M71.944,113.75
	c0.861,0,1.719,0,2.577,0.003c-0.385-1.715-0.771-3.427-1.146-5.132c-0.1,0.003-0.198,0.003-0.285,0.003
	C72.704,110.336,72.318,112.045,71.944,113.75L71.944,113.75z M93.764,118.819c0.61,0.025,1.048-0.052,1.31-0.235
	c0.261-0.185,0.385-0.478,0.385-0.87c0-0.272-0.098-0.519-0.312-0.727c-0.223-0.217-0.646-0.472-1.308-0.751
	c-1.366-0.577-2.576-1.104-3.609-1.6c-1.033-0.495-1.893-1.023-2.575-1.603c-0.674-0.57-1.184-1.24-1.52-2
	c-0.336-0.76-0.497-1.675-0.497-2.757c0-1.029,0.161-1.956,0.485-2.791c0.325-0.836,0.86-1.566,1.592-2.195
	c0.736-0.633,1.706-1.15,2.927-1.562c1.221-0.409,2.726-0.692,4.518-0.848c1.618-0.141,3.136-0.101,4.58,0.124
	c1.432,0.222,2.627,0.595,3.572,1.12c0,1.862,0,3.723,0,5.584c-1.953,0.074-3.908,0.151-5.863,0.223
	c0-0.575-0.148-0.961-0.446-1.156c-0.301-0.197-0.659-0.285-1.096-0.265c-0.61,0.028-1.058,0.139-1.319,0.314
	c-0.271,0.18-0.411,0.472-0.411,0.876c0,0.333,0.15,0.569,0.436,0.716c0.286,0.147,0.723,0.305,1.295,0.485
	c1.083,0.342,2.104,0.714,3.061,1.116c0.959,0.4,1.808,0.921,2.528,1.547c0.723,0.628,1.294,1.409,1.718,2.325
	c0.421,0.915,0.622,2.045,0.622,3.382c0,2.716-0.768,4.701-2.34,5.878c-1.565,1.174-3.859,1.596-6.871,1.341
	c-1.717-0.146-3.359-0.426-4.942-0.845c-1.578-0.415-2.851-0.839-3.795-1.305c0-1.816,0-3.637,0-5.453
	c2.04,0.049,4.082,0.105,6.136,0.164c0,0.574,0.112,1.002,0.336,1.29C92.582,118.633,93.057,118.791,93.764,118.819L93.764,118.819z
	 M117.104,99.158c3.634-0.407,7.281-0.845,10.928-1.373c0,2.105,0,4.208,0,6.31c-0.56,0.06-1.12,0.103-1.681,0.144
	c0,2.827,0,5.655,0,8.476c0,2.823,0,5.651,0,8.476c0.561,0.056,1.121,0.116,1.681,0.213c0,2.105,0,4.208,0,6.309
	c-3.646-0.618-7.294-1.072-10.928-1.486c0-1.902,0-3.803,0-5.706c0.473,0.028,0.945,0.058,1.431,0.093c0-1.935,0-3.869,0-5.807
	c-1.406-0.028-2.8-0.05-4.194-0.071c0,1.873,0,3.743,0,5.612c0.473,0.031,0.945,0.059,1.432,0.091c0,1.881,0,3.763,0,5.645
	c-3.648-0.384-7.295-0.754-10.931-1.1c0-1.728,0-3.451,0-5.178c0.562,0.029,1.121,0.06,1.681,0.089c0-2.396,0-4.796,0-7.196
	c0-2.396,0-4.796,0-7.195c-0.56,0.032-1.119,0.063-1.681,0.096c0-1.723,0-3.45,0-5.176c3.636-0.364,7.282-0.732,10.931-1.12
	c0,1.883,0,3.764,0,5.644c-0.486,0.032-0.959,0.06-1.432,0.091c0,1.723,0,3.447,0,5.172c1.395-0.028,2.788-0.056,4.194-0.083
	c0-1.785,0-3.565,0-5.352c-0.485,0.029-0.958,0.061-1.431,0.089C117.104,102.963,117.104,101.064,117.104,99.158z"/>
<path fill="#FFFFFF" d="M109.24,53.434c-0.076,0.006-0.133,0.031-0.169,0.071c-0.036,0.043-0.056,0.101-0.056,0.177v1.13
	c0,0.078,0.023,0.137,0.066,0.173c0.044,0.036,0.106,0.051,0.181,0.04l0.731-0.095v7.439c0,0.058,0.015,0.106,0.044,0.136
	c0.031,0.035,0.078,0.053,0.143,0.053h1.225c0.059,0,0.106-0.018,0.139-0.053c0.033-0.03,0.048-0.078,0.048-0.136v-9.042
	c0-0.058-0.015-0.104-0.048-0.137c-0.032-0.033-0.081-0.049-0.139-0.049L109.24,53.434L109.24,53.434z M113.307,60.909
	c0.002,0.537,0.145,0.947,0.421,1.227c0.28,0.278,0.689,0.418,1.228,0.422h1.288c0.537-0.004,0.944-0.145,1.226-0.422
	c0.278-0.28,0.422-0.689,0.422-1.227v-3.225c0-0.066-0.016-0.117-0.047-0.16c-0.031-0.04-0.083-0.077-0.154-0.1l-2.799-0.881v-1.848
	h2.646c0.078,0,0.135-0.021,0.176-0.062c0.039-0.041,0.06-0.099,0.06-0.175v-1.083c0-0.076-0.021-0.136-0.06-0.175
	c-0.041-0.041-0.098-0.059-0.176-0.059h-4.003c-0.152,0-0.235,0.081-0.235,0.234C113.3,55.89,113.307,58.394,113.307,60.909
	L113.307,60.909z M114.786,58.136l1.517,0.476v2.154c0,0.078-0.021,0.138-0.062,0.178c-0.04,0.04-0.098,0.059-0.176,0.059h-1.282
	C114.783,60.046,114.786,59.09,114.786,58.136z"/>
<path fill="#151515" d="M26.324,31.407c-0.237-0.153-0.463-0.213-0.679-0.18c-0.218,0.033-0.491,0.159-0.824,0.38
	c-0.63,0.49-1.185,0.799-1.669,0.933c-0.482,0.132-0.976,0.037-1.477-0.288c-0.496-0.324-0.783-0.769-0.857-1.338
	c-0.074-0.568,0.074-1.136,0.443-1.707c0.374-0.577,0.854-0.931,1.437-1.067c0.581-0.134,1.134-0.025,1.657,0.331l0.017,0.025
	l-0.744,1.148c-0.277-0.181-0.547-0.257-0.809-0.23c-0.261,0.027-0.477,0.167-0.641,0.42c-0.151,0.235-0.2,0.465-0.144,0.689
	c0.061,0.226,0.196,0.407,0.411,0.547c0.201,0.13,0.412,0.166,0.637,0.101c0.226-0.064,0.533-0.225,0.928-0.486
	c0.567-0.447,1.094-0.721,1.581-0.817s0.983,0.021,1.49,0.35c0.524,0.341,0.824,0.783,0.893,1.325
	c0.07,0.543-0.084,1.104-0.46,1.684c-0.375,0.578-0.869,0.966-1.48,1.171c-0.611,0.205-1.229,0.095-1.848-0.327l-0.021-0.025
	l0.749-1.151c0.374,0.242,0.694,0.338,0.962,0.287c0.267-0.054,0.503-0.239,0.709-0.557c0.163-0.25,0.215-0.479,0.161-0.685
	C26.693,31.733,26.553,31.556,26.324,31.407L26.324,31.407z M28.43,22.072l-0.854-0.742l-3.053,3.512l0.853,0.743l1.062-1.221
	l4.599,3.998l0.924-1.063L27.362,23.3L28.43,22.072L28.43,22.072z M33.817,19.871l0.021-0.019l-1.067-3.147l1.176-0.985l1.411,4.892
	l1.652,1.97l-1.081,0.904l-1.708-2.036l-4.49-2.194l1.183-0.991L33.817,19.871L33.817,19.871z M41.139,18.204l-2.957-5.334
	l-1.237,0.687l3.503,6.319l3.546-1.967l-0.546-0.985L41.139,18.204L41.139,18.204z M48.304,12.41l-2.217,0.987l0.832,1.867
	l2.606-1.16l0.458,1.028l-3.898,1.736l-2.939-6.601l3.891-1.731l0.46,1.034l-2.599,1.156l0.731,1.642l2.218-0.986L48.304,12.41
	L48.304,12.41z M52.549,6.79l2.368,4.92l0.031-0.006l0.177-5.46l1.802-0.383l1.501,7.067l-1.373,0.292l-0.436-2.053L56.15,8.394
	l-0.029,0.001l-0.329,5.093l-0.915,0.195L52.528,9.2l-0.03,0.012l0.699,2.682l0.438,2.053l-1.373,0.292l-1.503-7.067L52.549,6.79
	L52.549,6.79z M62.686,12.477l-1.401,0.099l-0.503-7.208l1.401-0.098L62.686,12.477L62.686,12.477z M67.837,7.766h0.027l1.026-2.507
	l1.634,0.028L68.71,8.837l1.808,3.676l-1.701-0.03l-0.969-2.598l-0.028-0.001l-1.058,2.563l-1.642-0.029l1.86-3.611l-1.69-3.612
	l1.622,0.028L67.837,7.766L67.837,7.766z M77.928,7.654l-1.6-0.282l-1.059,6.001l-1.389-0.245l1.058-6.001l-1.591-0.281l0.195-1.114
	l4.584,0.808L77.928,7.654L77.928,7.654z M83.983,15.878l-1.34-0.435l0.924-2.847l-2.133-0.692l-0.924,2.844l-1.346-0.437
	l2.233-6.871l1.345,0.438l-0.959,2.954l2.131,0.693l0.961-2.954l1.341,0.436L83.983,15.878L83.983,15.878z M91.34,16.241
	l-2.122-1.177l-0.99,1.788l2.494,1.383l-0.545,0.985l-3.732-2.069l3.502-6.318l3.724,2.063l-0.549,0.99l-2.485-1.379l-0.873,1.572
	l2.122,1.177L91.34,16.241L91.34,16.241z M98.127,15.895l-1.442-1.128l-4.448,5.693l1.105,0.865l1.292-1.653l1.606-2.26l0.027,0.016
	l-1.924,4.679l0.736,0.577l4.113-3.022l0.021,0.022l-1.824,2.14l-1.292,1.654l1.106,0.865l4.449-5.694l-1.451-1.134l-4.297,3.374
	l-0.024-0.019L98.127,15.895L98.127,15.895z M103.981,27.162l-1.593-1.833l-1.543,1.341l1.872,2.153l-0.849,0.74l-2.802-3.222
	l5.454-4.738l2.792,3.212l-0.854,0.743l-1.865-2.145l-1.356,1.178l1.592,1.832L103.981,27.162L103.981,27.162z M106.67,33.136
	c-0.229,0.149-0.448,0.203-0.658,0.168c-0.212-0.033-0.398-0.176-0.561-0.425c-0.208-0.317-0.28-0.61-0.221-0.875
	c0.061-0.265,0.279-0.52,0.654-0.761l-0.748-1.152l-0.029,0.006c-0.64,0.396-0.991,0.915-1.053,1.557
	c-0.062,0.641,0.094,1.25,0.469,1.827c0.377,0.581,0.827,0.95,1.349,1.107c0.524,0.157,1.051,0.064,1.574-0.276
	c0.509-0.329,0.816-0.736,0.927-1.221c0.11-0.483,0.075-1.075-0.103-1.776c-0.079-0.466-0.1-0.812-0.068-1.045
	c0.034-0.231,0.151-0.41,0.353-0.541c0.216-0.141,0.438-0.192,0.665-0.152c0.229,0.04,0.421,0.177,0.574,0.412
	c0.164,0.252,0.203,0.506,0.122,0.754c-0.083,0.251-0.261,0.466-0.539,0.647l0.745,1.147l0.032-0.006
	c0.535-0.334,0.86-0.792,0.976-1.38c0.112-0.586-0.017-1.169-0.392-1.746c-0.369-0.569-0.829-0.936-1.38-1.098
	c-0.547-0.165-1.072-0.085-1.569,0.238c-0.501,0.327-0.789,0.738-0.863,1.232c-0.075,0.498-0.019,1.129,0.172,1.903
	c0.068,0.394,0.072,0.697,0.014,0.909C107.054,32.801,106.906,32.982,106.67,33.136z"/>
<g>
	<path fill="#FEFEFE" d="M112.017,137.807c0-0.271,0.098-0.506,0.292-0.698c0.193-0.193,0.425-0.289,0.698-0.289
		c0.274,0,0.507,0.096,0.701,0.289c0.193,0.192,0.292,0.427,0.292,0.698c0,0.276-0.099,0.509-0.292,0.701
		c-0.195,0.197-0.427,0.294-0.701,0.294c-0.273,0-0.505-0.097-0.698-0.294C112.114,138.314,112.017,138.083,112.017,137.807
		L112.017,137.807z"/>
	<g>
		<path fill="#FFFFFF" d="M30.982,138.531h0.024l0.65-3.841h1.141l-1.161,6.021h-1.096l-0.849-3.688h-0.024l-0.839,3.688h-1.092
			l-1.162-6.021h1.142l0.648,3.841h0.025l0.868-3.841h0.843L30.982,138.531z"/>
		<path fill="#FFFFFF" d="M38.248,138.547c0,0.706-0.193,1.257-0.576,1.654s-0.893,0.595-1.529,0.595
			c-0.638,0-1.146-0.198-1.526-0.595s-0.57-0.948-0.57-1.654v-1.687c0-0.703,0.19-1.255,0.57-1.656
			c0.38-0.401,0.889-0.602,1.521-0.602c0.635,0,1.144,0.2,1.53,0.602c0.385,0.401,0.58,0.953,0.58,1.656V138.547z M37.077,136.848
			c0-0.432-0.081-0.757-0.24-0.977c-0.16-0.219-0.393-0.329-0.699-0.329c-0.308,0-0.54,0.109-0.694,0.327
			c-0.153,0.219-0.23,0.545-0.23,0.979v1.7c0,0.437,0.078,0.765,0.234,0.983c0.157,0.218,0.39,0.327,0.695,0.327
			c0.304,0,0.534-0.109,0.694-0.327c0.159-0.219,0.24-0.546,0.24-0.983V136.848z"/>
		<path fill="#FFFFFF" d="M41.037,138.316v2.394h-1.175v-6.016h1.964c0.593,0,1.059,0.157,1.396,0.469
			c0.338,0.313,0.507,0.748,0.507,1.305c0,0.314-0.071,0.585-0.211,0.812c-0.141,0.229-0.346,0.409-0.616,0.544
			c0.308,0.104,0.532,0.278,0.668,0.521c0.137,0.243,0.204,0.545,0.204,0.909v0.426c0,0.166,0.021,0.343,0.058,0.532
			c0.04,0.189,0.107,0.327,0.202,0.411v0.087h-1.215c-0.096-0.088-0.157-0.232-0.181-0.43c-0.025-0.199-0.038-0.401-0.038-0.608
			v-0.409c0-0.301-0.062-0.534-0.184-0.699c-0.122-0.165-0.299-0.248-0.527-0.248H41.037L41.037,138.316z M41.037,137.376h0.786
			c0.239,0,0.42-0.072,0.545-0.219c0.125-0.146,0.186-0.354,0.186-0.625c0-0.275-0.061-0.495-0.186-0.657
			c-0.125-0.162-0.305-0.244-0.542-0.244h-0.789V137.376z"/>
		<path fill="#FFFFFF" d="M45.51,140.71v-6.021h1.819c0.617,0,1.128,0.233,1.529,0.701c0.402,0.468,0.604,1.069,0.604,1.805v1.013
			c0,0.736-0.201,1.336-0.604,1.803c-0.401,0.465-0.912,0.699-1.529,0.699H45.51z M46.688,135.627v4.144h0.574
			c0.329,0,0.581-0.143,0.758-0.428c0.179-0.286,0.269-0.664,0.269-1.136v-1.022c0-0.469-0.09-0.846-0.269-1.13
			c-0.177-0.284-0.429-0.426-0.758-0.426H46.688L46.688,135.627z"/>
		<path fill="#FFFFFF" d="M52.294,138.547v2.163h-1.178v-6.021h2.092c0.601,0,1.074,0.178,1.422,0.533
			c0.348,0.355,0.521,0.821,0.521,1.396c0,0.578-0.175,1.044-0.523,1.398s-0.822,0.531-1.42,0.531H52.294L52.294,138.547z
			 M52.294,137.608h0.914c0.25,0,0.442-0.092,0.575-0.278c0.132-0.185,0.198-0.419,0.198-0.704c0-0.287-0.065-0.525-0.196-0.714
			c-0.132-0.189-0.324-0.284-0.577-0.284h-0.914V137.608L52.294,137.608z"/>
		<path fill="#FFFFFF" d="M57.928,138.316v2.394h-1.174v-6.016h1.965c0.593,0,1.058,0.157,1.396,0.469
			c0.338,0.313,0.506,0.748,0.506,1.305c0,0.314-0.07,0.585-0.211,0.812c-0.141,0.229-0.346,0.409-0.615,0.544
			c0.309,0.104,0.531,0.278,0.666,0.521c0.139,0.243,0.206,0.545,0.206,0.909v0.426c0,0.166,0.019,0.343,0.058,0.532
			c0.039,0.189,0.105,0.327,0.203,0.411v0.087h-1.216c-0.097-0.088-0.157-0.232-0.183-0.43c-0.025-0.199-0.037-0.401-0.037-0.608
			v-0.409c0-0.301-0.061-0.534-0.184-0.699c-0.123-0.165-0.299-0.248-0.527-0.248H57.928L57.928,138.316z M57.928,137.376h0.786
			c0.24,0,0.423-0.072,0.546-0.219c0.124-0.146,0.187-0.354,0.187-0.625c0-0.275-0.063-0.495-0.187-0.657
			c-0.123-0.162-0.305-0.244-0.541-0.244h-0.791V137.376L57.928,137.376z"/>
		<path fill="#FFFFFF" d="M65.603,138.067h-2.023v1.704h2.378v0.939h-3.556v-6.021h3.549v0.938h-2.371v1.502h2.023V138.067z"/>
		<path fill="#FFFFFF" d="M70.091,139.138c0-0.234-0.061-0.42-0.182-0.556s-0.334-0.271-0.641-0.403
			c-0.625-0.217-1.095-0.464-1.407-0.741c-0.313-0.278-0.47-0.666-0.47-1.165c0-0.493,0.182-0.895,0.546-1.205
			c0.363-0.31,0.828-0.465,1.394-0.465c0.572,0,1.038,0.172,1.396,0.519c0.359,0.346,0.531,0.782,0.521,1.309l-0.008,0.024H70.1
			c0-0.275-0.069-0.499-0.208-0.669c-0.137-0.171-0.331-0.257-0.581-0.257c-0.235,0-0.418,0.071-0.549,0.213
			c-0.131,0.142-0.195,0.32-0.195,0.535c0,0.198,0.072,0.362,0.218,0.49c0.146,0.128,0.4,0.271,0.761,0.428
			c0.571,0.193,1.001,0.438,1.289,0.734c0.287,0.297,0.432,0.697,0.432,1.202c0,0.521-0.174,0.929-0.521,1.224
			c-0.348,0.295-0.81,0.442-1.385,0.442c-0.574,0-1.07-0.167-1.491-0.502c-0.42-0.335-0.624-0.815-0.609-1.44l0.007-0.025h1.146
			c0,0.373,0.078,0.64,0.235,0.802c0.157,0.163,0.395,0.244,0.712,0.244c0.246,0,0.432-0.065,0.552-0.198
			C70.032,139.543,70.091,139.365,70.091,139.138z"/>
		<path fill="#FFFFFF" d="M75.522,139.138c0-0.234-0.06-0.42-0.181-0.556s-0.335-0.271-0.642-0.403
			c-0.625-0.217-1.095-0.464-1.407-0.741c-0.313-0.278-0.469-0.666-0.469-1.165c0-0.493,0.181-0.895,0.545-1.205
			c0.364-0.31,0.829-0.465,1.394-0.465c0.574,0,1.039,0.172,1.397,0.519c0.357,0.346,0.531,0.782,0.521,1.309l-0.009,0.024h-1.141
			c0-0.275-0.069-0.499-0.207-0.669c-0.138-0.171-0.333-0.257-0.583-0.257c-0.235,0-0.417,0.071-0.548,0.213
			c-0.131,0.142-0.196,0.32-0.196,0.535c0,0.198,0.073,0.362,0.218,0.49c0.147,0.128,0.4,0.271,0.762,0.428
			c0.57,0.193,1,0.438,1.288,0.734c0.287,0.297,0.432,0.697,0.432,1.202c0,0.521-0.172,0.929-0.52,1.224
			c-0.349,0.295-0.81,0.442-1.386,0.442c-0.574,0-1.069-0.167-1.491-0.502c-0.419-0.335-0.623-0.815-0.608-1.44l0.008-0.025h1.146
			c0,0.373,0.078,0.64,0.234,0.802c0.158,0.163,0.395,0.244,0.712,0.244c0.248,0,0.432-0.065,0.552-0.198
			C75.464,139.543,75.522,139.365,75.522,139.138z"/>
		<path fill="#FFFFFF" d="M84.527,135.627h-1.356v5.083h-1.175v-5.083h-1.348v-0.938h3.879V135.627z"/>
		<path fill="#FFFFFF" d="M90.161,140.71h-1.174v-2.494h-1.868v2.494H85.94v-6.021h1.179v2.588h1.868v-2.588h1.174V140.71z"/>
		<path fill="#FFFFFF" d="M95.117,138.067h-2.021v1.704h2.377v0.939h-3.557v-6.021h3.549v0.938h-2.369v1.502h2.021V138.067z"/>
		<path fill="#FFFFFF" d="M98.437,134.689l1.081,4.42h0.024l1.092-4.42h1.533v6.021h-1.169v-1.75l0.098-2.34l-0.024-0.004
			l-1.148,4.094h-0.781l-1.139-4.06l-0.024,0.004l0.104,2.307v1.75h-1.17v-6.021H98.437z"/>
		<path fill="#FFFFFF" d="M107.104,138.067h-2.022v1.704h2.378v0.939h-3.556v-6.021h3.548v0.938h-2.37v1.502h2.022V138.067z"/>
	</g>
	<path fill="#FEFEFE" d="M19.965,137.624c0-0.271,0.097-0.506,0.291-0.698c0.192-0.193,0.425-0.289,0.697-0.289
		c0.274,0,0.506,0.095,0.703,0.289c0.193,0.192,0.292,0.428,0.292,0.698c0,0.276-0.099,0.51-0.292,0.701
		c-0.197,0.197-0.429,0.294-0.703,0.294c-0.272,0-0.505-0.097-0.697-0.294C20.062,138.132,19.965,137.9,19.965,137.624
		L19.965,137.624z"/>
</g>
<image overflow="visible" width="1920" height="1080" xlink:href="139B1F99.jpg"  transform="matrix(1 0 0 1 468 -190.1099)">
</image>
<g>
</g>
<g>
</g>
<g>
</g>
<g>
</g>
<g>
</g>
<g>
</g>
</svg>
