<svg xmlns="http://www.w3.org/2000/svg" width="130" height="40" viewBox="0 0 130 40">
  <metadata><?xpacket begin="﻿" id="W5M0MpCehiHzreSzNTczkc9d"?>
<x:xmpmeta xmlns:x="adobe:ns:meta/" x:xmptk="Adobe XMP Core 5.6-c138 79.159824, 2016/09/14-01:09:01        ">
   <rdf:RDF xmlns:rdf="http://www.w3.org/1999/02/22-rdf-syntax-ns#">
      <rdf:Description rdf:about=""/>
   </rdf:RDF>
</x:xmpmeta>
                                                                                                    
                                                                                                    
                                                                                                    
                                                                                                    
                                                                                                    
                                                                                                    
                                                                                                    
                                                                                                    
                                                                                                    
                                                                                                    
                                                                                                    
                                                                                                    
                                                                                                    
                                                                                                    
                                                                                                    
                                                                                                    
                                                                                                    
                                                                                                    
                                                                                                    
                                                                                                    
                           
<?xpacket end="w"?></metadata>
<defs>
    <style>
      .cls-1 {
        fill: #ebff00;
      }

      .cls-2 {
        fill: #37003c;
        fill-rule: evenodd;
      }
    </style>
  </defs>
  <circle class="cls-1" cx="20" cy="20" r="19"/>
  <path class="cls-2" d="M20,40A20,20,0,1,1,40,20,20,20,0,0,1,20,40ZM6.8,7.848A12.228,12.228,0,0,1,5.408,9.489a17.877,17.877,0,0,0-3.079,7.128c0.658-1.888,1.711-3.055,2.806-2.907,1.126,0.153,2.1,4,4.446,9.033,1.605,3.448,4.417,8.049,7.4,7.24,2.058-.558,1.234-3.756-1.016-7.654a28.45,28.45,0,0,0-2.92-4.1c-2.4-2.752-3.182-4.318-2.454-6.288,1.4-3.78,7.26-3.926,12.273-3.485,5.515,0.485,7.568,1.237,8.212.212,0.667-1.061-1.825-4.107-7.121-4.485-6.045-.432-10.828,2.886-12.3,1.7a1.525,1.525,0,0,1-.427-1.6A18.046,18.046,0,0,0,6.885,7.7C6.854,7.75,6.837,7.8,6.8,7.848ZM16.075,37.5a12.862,12.862,0,0,1,2.206.408C18.848,37.966,19.42,38,20,38a17.94,17.94,0,0,0,5.874-1c-1.95.365-3.474,0.035-3.891-.983-0.431-1.051,2.411-3.817,5.6-8.366,2.183-3.113,4.762-7.849,2.571-10.028-1.512-1.5-3.87.81-6.12,4.707a28.484,28.484,0,0,0-2.093,4.579c-1.184,3.452-2.149,4.915-4.218,5.27-3.971.681-7.029-4.324-9.154-8.886-2.338-5.018-2.712-7.172-3.922-7.218C3.4,16.027,2,19.708,4.324,24.484c2.649,5.451,7.913,7.935,7.624,9.8a1.52,1.52,0,0,1-1.159,1.163,17.863,17.863,0,0,0,5.1,2.065C15.954,37.51,16.006,37.5,16.075,37.5ZM37.122,14.646a12.733,12.733,0,0,1-.746-2.1,17.991,17.991,0,0,0-4.632-6.18c1.322,1.522,1.814,3.029,1.134,3.907-0.7.9-4.511-.18-10.046-0.667-3.788-.333-9.179-0.2-9.969,2.788C12.318,14.454,15.5,15.34,20,15.34a28.517,28.517,0,0,0,5.013-.477c3.581-.7,5.331-0.6,6.673,1.018,2.575,3.1-.23,8.25-3.119,12.371-3.178,4.534-4.856,5.935-4.29,7.006,0.585,1.108,4.469.473,7.445-3.924,3.4-5.02,2.915-10.82,4.671-11.5a1.524,1.524,0,0,1,1.595.427c0-.087.013-0.172,0.013-0.26a18.038,18.038,0,0,0-.754-5.149C37.205,14.778,37.163,14.724,37.122,14.646Zm0.79,7.119c-0.461-.325-0.98-0.26-1.217.561a14.444,14.444,0,0,0-.273,5.024A17.858,17.858,0,0,0,37.912,21.765ZM9.531,34.622c0.5-.238.694-0.718,0.107-1.327a14.474,14.474,0,0,0-4.212-2.76A18.071,18.071,0,0,0,9.531,34.622ZM12.586,3.611c-0.046.555,0.257,0.972,1.08,0.767a14.47,14.47,0,0,0,4.5-2.286A17.857,17.857,0,0,0,12.586,3.611ZM60.975,23.979a4.867,4.867,0,0,0-.806-2.912,5.527,5.527,0,0,0-1.924-1.7,20.622,20.622,0,0,0-2.886-1.183q-1.222-.442-1.872-0.728a3.266,3.266,0,0,1-1.079-.741,1.551,1.551,0,0,1-.429-1.1,1.527,1.527,0,0,1,.481-1.222,1.86,1.86,0,0,1,1.261-.416,1.951,1.951,0,0,1,1.443.533,2.47,2.47,0,0,1,.663,1.443h4.81a5.557,5.557,0,0,0-2.041-4,7.549,7.549,0,0,0-4.875-1.456,8.392,8.392,0,0,0-3.367.637,5.29,5.29,0,0,0-2.3,1.833,4.836,4.836,0,0,0-.832,2.834,4.813,4.813,0,0,0,.793,2.873,5.237,5.237,0,0,0,1.9,1.664,22.915,22.915,0,0,0,2.847,1.157q1.2,0.416,1.872.715a3.572,3.572,0,0,1,1.131.767,1.612,1.612,0,0,1,.455,1.17,1.639,1.639,0,0,1-.494,1.248,1.886,1.886,0,0,1-1.352.468,2.278,2.278,0,0,1-1.625-.6,2.5,2.5,0,0,1-.741-1.638H47.273a5.462,5.462,0,0,0,2.184,4.212,8.235,8.235,0,0,0,5.1,1.508,7.7,7.7,0,0,0,3.5-.728,5.223,5.223,0,0,0,2.184-1.95,5.067,5.067,0,0,0,.741-2.678h0Zm10.478-9.516a5.252,5.252,0,0,0-2.86.754,4.379,4.379,0,0,0-1.742,2.054V14.645H62.405V36.069h4.446V26.527a4.376,4.376,0,0,0,1.742,2.054,5.249,5.249,0,0,0,2.86.754,5.876,5.876,0,0,0,3.211-.9A6.137,6.137,0,0,0,76.9,25.851a8.966,8.966,0,0,0,.819-3.952,8.946,8.946,0,0,0-.819-3.965,6.153,6.153,0,0,0-2.236-2.574,5.876,5.876,0,0,0-3.211-.9h0Zm-1.43,3.9a3,3,0,0,1,2.3.936,3.671,3.671,0,0,1,.871,2.6,3.67,3.67,0,0,1-.871,2.6,3.264,3.264,0,0,1-4.6-.026,3.622,3.622,0,0,1-.9-2.574,3.614,3.614,0,0,1,.9-2.587,3.026,3.026,0,0,1,2.3-.949h0Zm8.97-8.45v19.24h4.446V9.913H78.993Zm11.986,4.55a5.875,5.875,0,0,0-3.211.9,6.15,6.15,0,0,0-2.236,2.574,8.946,8.946,0,0,0-.819,3.965,8.966,8.966,0,0,0,.819,3.952,6.134,6.134,0,0,0,2.236,2.587,5.875,5.875,0,0,0,3.211.9,5.251,5.251,0,0,0,2.86-.754,4.534,4.534,0,0,0,1.768-2.054v2.626h4.42V14.645h-4.42v2.626a4.537,4.537,0,0,0-1.768-2.054,5.254,5.254,0,0,0-2.86-.754h0Zm1.43,3.9a3.026,3.026,0,0,1,2.3.949,3.614,3.614,0,0,1,.9,2.587,3.622,3.622,0,0,1-.9,2.574,3.264,3.264,0,0,1-4.6.026,3.668,3.668,0,0,1-.871-2.6,3.669,3.669,0,0,1,.871-2.6,2.994,2.994,0,0,1,2.3-.936h0Zm14.924-3.9a6.457,6.457,0,0,0-4.186,1.209,3.882,3.882,0,0,0-1.482,3.159,3.511,3.511,0,0,0,.754,2.379,4.367,4.367,0,0,0,1.794,1.261,18.552,18.552,0,0,0,2.652.728,13.2,13.2,0,0,1,2.327.689,1.111,1.111,0,0,1,.715,1.079,1.182,1.182,0,0,1-.39.923,1.659,1.659,0,0,1-1.144.351,2.984,2.984,0,0,1-1.781-.494,1.927,1.927,0,0,1-.793-1.43h-4.29a5.484,5.484,0,0,0,2.158,3.718,7.763,7.763,0,0,0,4.706,1.3,7.623,7.623,0,0,0,3.016-.546,4.454,4.454,0,0,0,1.95-1.508,3.752,3.752,0,0,0,.676-2.21,3.629,3.629,0,0,0-.78-2.444,4.511,4.511,0,0,0-1.846-1.313,22.381,22.381,0,0,0-2.73-.793,11.359,11.359,0,0,1-2.249-.676,1.082,1.082,0,0,1-.715-1.014,1.135,1.135,0,0,1,.39-0.923,1.748,1.748,0,0,1,1.144-.325,2.488,2.488,0,0,1,1.6.507,2.311,2.311,0,0,1,.819,1.391h4.16a5.994,5.994,0,0,0-2.067-3.64,6.658,6.658,0,0,0-4.407-1.378h0Zm17.315,0.026a5.456,5.456,0,0,0-2.9.754A4.789,4.789,0,0,0,119.89,17.3V9.913h-4.446v19.24h4.446v-7.7a3.474,3.474,0,0,1,.793-2.444,2.779,2.779,0,0,1,2.145-.858,2.664,2.664,0,0,1,2.041.819,3.2,3.2,0,0,1,.767,2.275v7.9h4.446V20.729a6.676,6.676,0,0,0-1.469-4.576,5.022,5.022,0,0,0-3.965-1.664h0Z"/>
</svg>
