<svg xmlns="http://www.w3.org/2000/svg" xmlns:xlink="http://www.w3.org/1999/xlink" preserveAspectRatio="xMidYMid"
     width="16" height="16" viewBox="0 0 16 16">
    <defs>
        <style>
            .cls-1 {
            fill: #da9a29;
            fill-rule: evenodd;
            }
        </style>
    </defs>
    <path d="M7.612,15.998 C5.001,15.998 2.123,13.950 2.005,11.081 C1.886,8.213 3.963,6.652 5.426,5.969 C4.717,7.369 7.602,7.612 7.444,5.891 C7.364,5.027 6.969,4.564 6.969,3.335 C6.969,2.106 8.176,0.389 8.947,-0.001 C8.769,0.662 8.690,1.365 9.184,2.144 C11.072,5.011 15.000,6.750 15.000,10.642 C15.000,14.535 11.163,15.999 9.560,15.999 C12.913,14.857 12.300,11.647 11.628,10.516 C11.459,11.891 10.213,13.032 9.184,12.974 C10.905,11.355 11.083,8.155 8.354,6.008 C9.620,9.852 5.832,9.984 5.688,13.071 C5.649,13.905 6.000,14.925 7.612,15.998 Z"
          class="cls-1"/>
</svg>
