<svg xmlns="http://www.w3.org/2000/svg" width="306" height="91" viewBox="0 0 306 91">
  <metadata><?xpacket begin="﻿" id="W5M0MpCehiHzreSzNTczkc9d"?>
<x:xmpmeta xmlns:x="adobe:ns:meta/" x:xmptk="Adobe XMP Core 5.6-c138 79.159824, 2016/09/14-01:09:01        ">
   <rdf:RDF xmlns:rdf="http://www.w3.org/1999/02/22-rdf-syntax-ns#">
      <rdf:Description rdf:about=""/>
   </rdf:RDF>
</x:xmpmeta>
                                                                                                    
                                                                                                    
                                                                                                    
                                                                                                    
                                                                                                    
                                                                                                    
                                                                                                    
                                                                                                    
                                                                                                    
                                                                                                    
                                                                                                    
                                                                                                    
                                                                                                    
                                                                                                    
                                                                                                    
                                                                                                    
                                                                                                    
                                                                                                    
                                                                                                    
                                                                                                    
                           
<?xpacket end="w"?></metadata>
<defs>
    <style>
      .cls-1 {
        fill: #fff;
      }

      .cls-1, .cls-2, .cls-3, .cls-4 {
        fill-rule: evenodd;
      }

      .cls-2 {
        fill: #d99a29;
      }

      .cls-3 {
        fill: #a66c00;
      }

      .cls-4 {
        fill: #2d3359;
      }
    </style>
  </defs>
  <path id="Splash" class="cls-1" d="M133.468,59.384a8,8,0,0,1-4.634,1.275q-3.747,0-5.329-1.856t-1.388-5.471L111.04,53.3a14.3,14.3,0,0,0,4.521,11.457,15.555,15.555,0,0,0,5.587,3.292,22.671,22.671,0,0,0,7.072,1.194A24.185,24.185,0,0,0,137.6,67.63a15.119,15.119,0,0,0,6.54-4.744,12.762,12.762,0,0,0,2.616-7.133q0.484-7.843-7.234-12.458a52.847,52.847,0,0,0-7.864-3.55q-5.41-2.065-4.8-5.293a5.237,5.237,0,0,1,2.519-3.647,8.565,8.565,0,0,1,4.909-1.291,4.97,4.97,0,0,1,4.085,1.694,6.575,6.575,0,0,1,1.147,4.341H150.5q0.065-6.616-4.182-10.554T135.1,20.929a25.327,25.327,0,0,0-9.591,1.646,16.12,16.12,0,0,0-6.879,4.793,12.02,12.02,0,0,0-2.713,7.02Q115.367,43,126.509,48.007l5.3,2.195q4.65,2,3.94,5.648A5.292,5.292,0,0,1,133.468,59.384Zm51.171-12.958q-0.194-6.2-3.052-9.779A9.783,9.783,0,0,0,173.627,33a10.273,10.273,0,0,0-8.3,3.938l0.549-3.324-9.818.032-8.4,48.347h10.625l3.165-16.363a9.494,9.494,0,0,0,7.427,3.615,12.563,12.563,0,0,0,7.251-1.985,15.97,15.97,0,0,0,5.441-6.358,28.989,28.989,0,0,0,2.874-9.763,37.572,37.572,0,0,0,.194-4.712h0Zm-10.818,4.712q-1.293,9.812-6.944,9.715-3.456-.064-4.457-2.872l2.487-13.846a6.265,6.265,0,0,1,5.587-2.743q3.456,0.1,3.617,5.422,0,1.227-.29,4.325h0Zm32.326-32.145H195.49L186.9,68.566h10.657Zm28.194,49.574,0.032-.613a8.8,8.8,0,0,1-.614-4.066l0.162-2,2.616-16.428a11.135,11.135,0,0,0-1.131-6.439,10.36,10.36,0,0,0-4.472-4.357A15.632,15.632,0,0,0,223.974,33a20.261,20.261,0,0,0-7.8,1.307,13.592,13.592,0,0,0-5.8,4,10.114,10.114,0,0,0-2.293,6.116l10.657-.032q0.807-3.9,4.3-3.841,2.809,0.1,2.938,3.034L225.847,45.3l-0.387,1.969-3.553-.064q-7.944,0-12.53,3.05a10.241,10.241,0,0,0-4.747,8.73,9.113,9.113,0,0,0,2.809,7.2A10.534,10.534,0,0,0,215,69.212a10.783,10.783,0,0,0,8.558-3.808,9.473,9.473,0,0,0,.452,3.163h10.335ZM215.917,60.61a2.853,2.853,0,0,1-.5-2.179,5.691,5.691,0,0,1,2.164-3.921,7.241,7.241,0,0,1,4.392-1.5l2.745,0.032-1.066,5.616a6.854,6.854,0,0,1-5.716,2.872A2.556,2.556,0,0,1,215.917,60.61Zm40.707,0.452a6.106,6.106,0,0,1-3.359.888q-4.585.065-4.65-4.583l-9.882-.065a10.928,10.928,0,0,0,1.889,6.116,12.517,12.517,0,0,0,5.07,4.212,16.431,16.431,0,0,0,7.024,1.582,20.436,20.436,0,0,0,8.09-1.388,13.374,13.374,0,0,0,5.7-3.97,9.332,9.332,0,0,0,2.067-5.648,8.623,8.623,0,0,0-1.195-4.97,10.368,10.368,0,0,0-3.746-3.47,26.87,26.87,0,0,0-6.943-2.469q-5.168-.968-4.619-3.582a3.7,3.7,0,0,1,1.647-2.534,5.211,5.211,0,0,1,3-.952q3.779,0,3.649,4.131l10.593,0.032a10.211,10.211,0,0,0-3.892-8.262,15.778,15.778,0,0,0-10-3.131,17.03,17.03,0,0,0-10.512,3.082,10.128,10.128,0,0,0-4.473,8.182,8.237,8.237,0,0,0,2.455,6.358q2.616,2.679,8.235,4.163l2.293,0.581q3.712,1.065,3.294,3.2A3.841,3.841,0,0,1,256.624,61.062Zm34.232-42.07H280.231l-8.622,49.574h10.625l4.456-25.107a6.884,6.884,0,0,1,5.1-2.1q3.325,0.1,3.552,3.3a11.4,11.4,0,0,1-.064,2.068l-3.65,21.843h10.625l3.617-21.689q0.711-6.358-1.824-10.07t-7.8-3.841q-5.1-.064-9.01,4.486Z"/>
  <path class="cls-2" d="M85.28,43.013A54.183,54.183,0,0,1,70.192,70.3,54.035,54.035,0,0,1,42.9,85.418c-18.53,3.668-30.06-.126-31.986-0.8a7.721,7.721,0,0,1-4.5-4.465c-0.642-1.966-4.557-13.069-.806-32.083a54.167,54.167,0,0,1,15.1-27.337A54.04,54.04,0,0,1,47.982,5.618C67.177,1.81,78.1,5.793,80.061,6.427c1.877,0.606,3.2,1.974,4.43,4.476C85.754,13.469,89.01,24.227,85.28,43.013Z"/>
  <path class="cls-3" d="M74.191,34.446A104.813,104.813,0,0,1,56.514,57.221,104.737,104.737,0,0,1,33.7,74.918C14.167,85.572,13.625,84.153,13.177,84.2c-0.768.768,10.722,4.02,28.874,0.453,9.05-1.778,19.041-7.365,26.794-15.118S82.178,51.8,83.959,42.758c3.616-18.354.684-30.043-.448-28.912C83.949,13.473,84.8,15.022,74.191,34.446Z"/>
  <path class="cls-1" d="M52.243,11.725c-8.236,2.611-17.027,8-24.785,15.755S14.3,44.06,11.689,52.309C4.424,75.3,6.6,76.6,6.713,77.2c-0.769.769-4.363-11.079-.772-29.255,1.79-9.061,7.394-19.07,15.164-26.84S38.869,7.739,47.924,5.945c18.378-3.64,30.433-.361,29.3.773C77.572,6.254,75.1,4.478,52.243,11.725ZM7.316,61.764L9.438,51.157,44.793,86.512l-12.021.707ZM61.763,7.316L51.157,9.438,86.512,44.793l0.707-12.021Z"/>
  <path class="cls-4" d="M31.358,34.893l3.535-3.535a1,1,0,0,1,1.414,0L48.328,43.379a1,1,0,0,1,0,1.414l-3.535,3.535a1,1,0,0,1-1.414,0L31.358,36.308A1,1,0,0,1,31.358,34.893Zm-9.9,9.9,3.535-3.536a1,1,0,0,1,1.414,0L38.429,53.278a1,1,0,0,1,0,1.414l-3.535,3.535a1,1,0,0,1-1.414,0L21.458,46.207A1,1,0,0,1,21.458,44.793Zm19.8-19.8,3.536-3.535a1,1,0,0,1,1.414,0L58.228,33.479a1,1,0,0,1,0,1.414l-3.535,3.535a1,1,0,0,1-1.414,0L41.257,26.408A1,1,0,0,1,41.257,24.994ZM85.805,7.316A196.515,196.515,0,0,0,7.316,85.805L4.488,82.977A196.516,196.516,0,0,1,82.977,4.488Z"/>
  <path class="cls-2" d="M89.01,43.065A58.114,58.114,0,0,1,72.724,72.724a58.1,58.1,0,0,1-29.713,16.3c-20.224,3.865-32.853-.362-34.964-1.107A8.6,8.6,0,0,1,3.1,83.008c-0.717-2.15-5.078-14.295-1.12-35.014a58.1,58.1,0,0,1,16.3-29.717A58.1,58.1,0,0,1,47.969,1.983C68.918-2.029,80.884,2.4,83.033,3.1c2.056,0.675,3.509,2.178,4.874,4.917C89.308,10.832,92.946,22.595,89.01,43.065Zm-5.376.041A51.774,51.774,0,0,1,69.188,69.188,51.759,51.759,0,0,1,43.059,83.644c-17.741,3.507-28.781-.121-30.626-0.761a7.387,7.387,0,0,1-4.306-4.268c-0.615-1.88-4.363-12.493-.772-30.67A51.758,51.758,0,0,1,21.812,21.812,51.764,51.764,0,0,1,47.924,7.359c18.378-3.64,28.835.167,30.714,0.773,1.8,0.579,3.062,1.887,4.241,4.279C84.088,14.865,87.205,25.149,83.635,43.107Z"/>
</svg>
