<svg xmlns="http://www.w3.org/2000/svg" xmlns:xlink="http://www.w3.org/1999/xlink" preserveAspectRatio="xMidYMid" width="16" height="16" viewBox="0 0 16 16">
  <defs>
    <style>
      .cls-1 {
        fill: #da9a29;
        fill-rule: evenodd;
      }
    </style>
  </defs>
  <path d="M15.000,13.994 L13.000,13.996 L13.000,15.996 L3.000,15.996 L3.000,13.996 L1.000,13.994 C0.447,13.994 -0.000,13.546 -0.000,12.993 L-0.000,3.993 C-0.000,3.442 0.447,2.993 1.000,2.993 L3.000,2.993 L3.000,-0.004 L13.000,-0.004 L13.000,2.993 L15.000,2.993 C15.552,2.993 16.000,3.442 16.000,3.993 L16.000,12.993 C16.000,13.546 15.552,13.994 15.000,13.994 ZM5.000,13.997 L11.000,13.997 L11.000,11.997 L5.000,11.997 L5.000,13.997 ZM11.000,1.996 L5.000,1.996 L5.000,2.997 L11.000,2.997 L11.000,1.996 ZM14.000,4.993 L2.000,4.993 L2.000,11.993 L3.000,11.995 L3.000,9.997 L13.000,9.997 L13.000,11.995 L14.000,11.993 L14.000,4.993 ZM11.000,6.996 L12.000,6.996 L12.000,7.996 L11.000,7.996 L11.000,6.996 ZM9.000,6.996 L10.000,6.996 L10.000,7.996 L9.000,7.996 L9.000,6.996 Z" class="cls-1"/>
</svg>
