<svg xmlns="http://www.w3.org/2000/svg" xmlns:xlink="http://www.w3.org/1999/xlink" preserveAspectRatio="xMidYMid" width="18" height="14" viewBox="0 0 18 14">
  <defs>
    <style>
      .cls-1 {
        fill: #fff;
        fill-rule: evenodd;
      }
    </style>
  </defs>
  <path d="M17.000,13.999 L15.500,13.999 L15.000,13.999 L14.984,13.999 L14.985,13.997 C14.440,13.989 14.000,13.546 14.000,12.999 C14.000,12.446 14.448,11.999 15.000,11.999 L15.500,11.999 C15.776,11.999 16.000,11.775 16.000,11.499 L16.000,4.499 C16.000,4.223 15.776,3.999 15.500,3.999 L13.000,3.999 L12.171,3.999 L11.586,3.413 L10.171,1.999 L7.828,1.999 L6.414,3.413 L5.828,3.999 L5.000,3.999 L2.500,3.999 C2.224,3.999 2.000,4.223 2.000,4.499 L2.000,11.499 C2.000,11.775 2.224,11.999 2.500,11.999 L3.000,11.999 C3.552,11.999 4.000,12.446 4.000,12.999 C4.000,13.551 3.552,13.999 3.000,13.999 L2.500,13.999 L1.000,13.999 C0.448,13.999 -0.000,13.551 -0.000,12.999 L-0.000,2.999 C-0.000,2.447 0.448,1.999 1.000,1.999 L5.000,1.999 L6.707,0.291 C6.895,0.105 7.149,-0.001 7.414,-0.001 L10.586,-0.001 C10.851,-0.001 11.105,0.105 11.293,0.291 L13.000,1.999 L17.000,1.999 C17.552,1.999 18.000,2.447 18.000,2.999 L18.000,12.999 C18.000,13.551 17.552,13.999 17.000,13.999 ZM9.000,4.999 C11.209,4.999 13.000,6.789 13.000,8.999 C13.000,11.208 11.209,12.999 9.000,12.999 C6.791,12.999 5.000,11.208 5.000,8.999 C5.000,6.789 6.791,4.999 9.000,4.999 ZM9.000,10.999 C10.103,10.999 11.000,10.101 11.000,8.999 C11.000,7.896 10.103,6.999 9.000,6.999 C7.897,6.999 7.000,7.896 7.000,8.999 C7.000,10.101 7.897,10.999 9.000,10.999 Z" class="cls-1"/>
</svg>
