<svg xmlns="http://www.w3.org/2000/svg" xmlns:xlink="http://www.w3.org/1999/xlink" preserveAspectRatio="xMidYMid" width="32" height="26" viewBox="0 0 32 26">
  <defs>
    <style>
      .cls-1 {
        fill: #da9a29;
        fill-rule: evenodd;
      }
    </style>
  </defs>
  <path d="M31.985,3.119 C31.446,3.415 29.828,4.008 28.321,4.157 C29.287,3.637 30.719,1.929 31.073,0.571 C30.143,1.165 28.008,2.030 26.954,2.030 C26.954,2.030 26.954,2.032 26.955,2.035 C25.753,0.778 24.061,-0.008 22.182,-0.008 C18.537,-0.008 15.581,2.950 15.581,6.594 C15.581,7.100 15.641,7.592 15.750,8.065 L15.748,8.065 C10.803,7.940 5.022,5.459 1.764,1.217 C-0.236,4.682 1.494,8.535 3.766,9.937 C2.991,9.999 1.557,9.850 0.883,9.195 C0.836,11.493 1.944,14.540 5.975,15.644 C5.198,16.064 3.827,15.944 3.227,15.853 C3.438,17.797 6.156,20.336 9.127,20.336 C8.069,21.559 4.455,23.783 -0.015,23.074 C3.022,24.923 6.563,25.993 10.310,25.993 C20.961,25.993 29.233,17.361 28.787,6.715 C28.787,6.702 28.784,6.688 28.784,6.678 C28.784,6.650 28.787,6.621 28.787,6.594 C28.787,6.563 28.784,6.530 28.784,6.495 C29.752,5.835 31.053,4.663 31.985,3.119 Z" class="cls-1"/>
</svg>
