<svg xmlns="http://www.w3.org/2000/svg" xmlns:xlink="http://www.w3.org/1999/xlink" preserveAspectRatio="xMidYMid" width="16" height="13" viewBox="0 0 16 13">
  <defs>
    <style>
      .cls-1 {
        fill: #da9a29;
        fill-rule: evenodd;
      }
    </style>
  </defs>
  <path d="M15.915,9.313 C15.242,9.723 14.196,10.040 12.948,10.264 L12.948,13.000 L3.057,13.000 L3.057,12.997 L3.052,12.997 L3.052,10.261 C1.804,10.037 0.758,9.720 0.085,9.310 C-0.245,9.110 0.447,8.587 0.989,8.506 C1.047,8.498 1.103,8.493 1.156,8.495 C3.328,9.114 5.826,9.376 8.130,9.390 C10.362,9.358 12.754,9.093 14.844,8.498 C14.897,8.495 14.953,8.500 15.011,8.509 C15.553,8.590 16.244,9.113 15.915,9.313 ZM7.960,8.291 C6.533,8.296 5.118,8.201 3.871,8.012 L3.615,7.995 L3.615,7.972 C2.723,7.825 1.925,7.628 1.280,7.382 C1.331,6.947 1.390,6.539 1.451,6.148 C1.732,4.361 2.096,3.012 2.354,2.063 L2.460,1.669 C2.740,0.621 2.912,0.122 3.804,0.020 L3.805,0.003 L4.050,0.003 C4.098,0.001 4.146,-0.000 4.198,-0.000 L12.195,-0.000 L12.196,0.023 C13.088,0.126 13.260,0.624 13.540,1.672 L13.646,2.066 C13.904,3.014 14.267,4.364 14.549,6.150 C14.610,6.542 14.668,6.950 14.720,7.385 C13.121,7.993 10.581,8.306 8.001,8.294 L7.960,8.291 ZM12.342,4.831 C12.133,3.537 12.269,4.184 12.077,3.496 L11.997,3.211 C11.789,2.452 11.661,2.091 10.998,2.017 L10.997,2.000 L5.295,2.000 C5.257,2.000 5.221,2.001 5.185,2.002 L5.003,2.002 L5.003,2.015 C4.339,2.089 4.211,2.450 4.002,3.209 L3.923,3.494 C3.731,4.182 3.836,3.535 3.627,4.829 C3.581,5.113 3.537,5.408 3.499,5.724 C3.979,5.901 4.198,6.044 4.862,6.151 L4.862,6.168 L5.052,6.180 C5.981,6.317 6.908,6.386 7.971,6.382 L8.001,6.384 C9.921,6.393 11.280,6.166 12.470,5.726 C12.431,5.411 12.388,5.115 12.342,4.831 Z" class="cls-1"/>
</svg>
