<svg xmlns="http://www.w3.org/2000/svg" xmlns:xlink="http://www.w3.org/1999/xlink" preserveAspectRatio="xMidYMid" width="14" height="16" viewBox="0 0 14 16">
  <defs>
    <style>
      .cls-1 {
        fill: #fff;
        fill-rule: evenodd;
      }
    </style>
  </defs>
  <path d="M8.000,13.923 L8.000,14.999 C8.000,15.551 7.552,15.999 7.000,15.999 C6.448,15.999 6.000,15.551 6.000,14.999 L6.000,13.892 C2.568,13.386 -0.000,10.343 -0.000,6.801 L-0.000,4.999 C-0.000,4.446 0.448,3.999 1.000,3.999 C1.552,3.999 2.000,4.446 2.000,4.999 L2.000,5.999 L2.000,6.999 C2.000,9.869 4.431,12.182 7.342,11.988 C9.997,11.809 12.000,9.483 12.000,6.823 L12.000,5.999 L12.000,4.999 C12.000,4.446 12.448,3.999 13.000,3.999 C13.552,3.999 14.000,4.446 14.000,4.999 L14.000,6.999 C14.000,10.525 11.391,13.437 8.000,13.923 ZM7.000,9.998 C5.343,9.998 4.000,8.656 4.000,6.999 L4.000,2.999 C4.000,1.342 5.343,-0.001 7.000,-0.001 C8.657,-0.001 10.000,1.342 10.000,2.999 L10.000,6.999 C10.000,8.656 8.657,9.998 7.000,9.998 ZM8.000,2.999 C8.000,2.447 7.551,1.999 7.000,1.999 C6.449,1.999 6.000,2.447 6.000,2.999 L6.000,6.999 C6.000,7.550 6.449,7.999 7.000,7.999 C7.551,7.999 8.000,7.550 8.000,6.999 L8.000,2.999 Z" class="cls-1"/>
</svg>
