<svg xmlns="http://www.w3.org/2000/svg" xmlns:xlink="http://www.w3.org/1999/xlink" preserveAspectRatio="xMidYMid" width="18" height="12" viewBox="0 0 18 12">
  <defs>
    <style>
      .cls-1 {
        fill: #fff;
        fill-rule: evenodd;
      }
    </style>
  </defs>
  <path d="M17.001,10.999 C16.885,10.999 16.766,10.976 16.649,10.927 L12.000,9.015 L12.000,10.999 C12.000,11.551 11.552,11.999 11.000,11.999 L1.000,11.999 C0.448,11.999 -0.000,11.551 -0.000,10.999 L-0.000,0.998 C-0.000,0.446 0.448,-0.002 1.000,-0.002 L11.000,-0.002 C11.552,-0.002 12.000,0.446 12.000,0.998 L12.000,2.982 L16.649,1.069 C16.766,1.022 16.885,0.998 17.001,0.998 C17.531,0.998 18.000,1.468 18.000,2.097 L18.000,9.900 C18.000,10.528 17.531,10.999 17.001,10.999 ZM10.000,2.999 L10.000,2.498 C10.000,2.222 9.776,1.998 9.500,1.998 L9.000,1.998 L2.500,1.998 C2.224,1.998 2.000,2.222 2.000,2.498 L2.000,9.498 C2.000,9.775 2.224,9.999 2.500,9.999 L9.500,9.999 C9.776,9.999 10.000,9.775 10.000,9.498 L10.000,8.192 L10.000,3.805 L10.000,2.999 ZM16.000,3.499 L12.000,5.144 L12.000,6.852 L16.000,8.498 L16.000,3.499 Z" class="cls-1"/>
</svg>
