<svg xmlns="http://www.w3.org/2000/svg" xmlns:xlink="http://www.w3.org/1999/xlink" preserveAspectRatio="xMidYMid" width="19" height="19" viewBox="0 0 19 19">
  <defs>
    <style>
      .cls-1 {
        fill: #fff;
        fill-rule: evenodd;
      }
    </style>
  </defs>
  <path d="M18.266,7.492 C18.020,8.944 16.776,9.998 15.306,9.998 L6.281,9.998 L6.592,11.241 C6.704,11.687 7.102,11.998 7.562,11.998 L16.000,11.998 C16.552,11.998 17.000,12.445 17.000,12.998 C17.000,13.549 16.552,13.998 16.000,13.998 L7.562,13.998 C6.184,13.998 4.986,13.064 4.650,11.725 L2.218,1.998 L1.000,1.998 C0.448,1.998 -0.000,1.550 -0.000,0.998 C-0.000,0.446 0.448,-0.002 1.000,-0.002 L3.000,-0.002 C3.458,-0.002 3.860,0.310 3.970,0.756 L4.280,1.998 L4.781,3.998 L5.781,7.998 L15.306,7.998 C15.796,7.998 16.210,7.645 16.292,7.162 L16.820,3.998 C16.820,3.998 16.871,3.790 17.000,3.000 C17.129,2.210 18.000,1.998 18.000,1.998 C18.292,1.998 18.572,2.125 18.764,2.352 C18.954,2.576 19.036,2.872 18.986,3.162 L18.266,7.492 ZM12.000,6.000 L10.000,6.000 L10.000,4.000 L8.000,4.000 L8.000,2.000 L10.000,2.000 L10.000,-0.000 L12.000,-0.000 L12.000,2.000 L14.000,2.000 L14.000,4.000 L12.000,4.000 L12.000,6.000 ZM7.000,14.997 C8.105,14.997 9.000,15.892 9.000,16.998 C9.000,18.102 8.105,18.997 7.000,18.997 C5.895,18.997 5.000,18.102 5.000,16.998 C5.000,15.892 5.895,14.997 7.000,14.997 ZM15.000,14.997 C16.105,14.997 17.000,15.892 17.000,16.998 C17.000,18.102 16.105,18.997 15.000,18.997 C13.896,18.997 13.000,18.102 13.000,16.998 C13.000,15.892 13.896,14.997 15.000,14.997 Z" class="cls-1"/>
</svg>
