<svg xmlns="http://www.w3.org/2000/svg" xmlns:xlink="http://www.w3.org/1999/xlink" preserveAspectRatio="xMidYMid" width="4" height="6" viewBox="0 0 4 6">
  <defs>
    <style>
      .cls-1 {
        fill: #da9a29;
        fill-rule: evenodd;
      }
    </style>
  </defs>
  <path d="M2.000,94.000 L2.000,92.000 L4.000,92.000 L4.000,94.000 L2.000,94.000 ZM-0.000,96.000 L-0.000,94.000 L2.000,94.000 L2.000,96.000 L-0.000,96.000 ZM-0.000,90.000 L2.000,90.000 L2.000,92.000 L-0.000,92.000 L-0.000,90.000 ZM-0.000,66.000 L-0.000,64.000 L2.000,64.000 L2.000,66.000 L-0.000,66.000 ZM2.000,62.000 L4.000,62.000 L4.000,64.000 L2.000,64.000 L2.000,62.000 ZM-0.000,60.000 L2.000,60.000 L2.000,62.000 L-0.000,62.000 L-0.000,60.000 ZM-0.000,36.000 L-0.000,34.000 L2.000,34.000 L2.000,36.000 L-0.000,36.000 ZM2.000,32.000 L4.000,32.000 L4.000,34.000 L2.000,34.000 L2.000,32.000 ZM-0.000,30.000 L2.000,30.000 L2.000,32.000 L-0.000,32.000 L-0.000,30.000 ZM-0.000,6.000 L-0.000,4.000 L2.000,4.000 L2.000,6.000 L-0.000,6.000 ZM2.000,2.000 L4.000,2.000 L4.000,4.000 L2.000,4.000 L2.000,2.000 ZM-0.000,0.000 L2.000,0.000 L2.000,2.000 L-0.000,2.000 L-0.000,0.000 Z" class="cls-1"/>
</svg>
