<svg xmlns="http://www.w3.org/2000/svg" xmlns:xlink="http://www.w3.org/1999/xlink" preserveAspectRatio="xMidYMid" width="16" height="12" viewBox="0 0 16 12">
  <defs>
    <style>
      .cls-1 {
        fill: #da9a29;
        fill-rule: evenodd;
      }
    </style>
  </defs>
  <path d="M8.000,-0.000 C4.356,-0.000 1.217,2.945 0.928,6.111 C0.919,6.243 0.889,6.393 0.861,6.461 C0.674,6.525 0.465,6.615 0.278,6.833 C0.061,7.085 -0.000,7.415 -0.000,7.683 L-0.000,9.006 C-0.000,9.459 0.264,9.830 0.517,10.022 C0.769,10.214 0.958,10.311 1.305,10.311 L1.378,10.311 C2.822,11.413 5.230,12.000 8.000,12.000 C10.768,12.000 13.178,11.413 14.622,10.311 L14.694,10.311 C15.042,10.311 15.237,10.214 15.489,10.022 C15.741,9.830 16.000,9.458 16.000,9.006 L16.000,7.683 C16.000,7.415 15.938,7.085 15.722,6.833 C15.535,6.615 15.326,6.525 15.139,6.461 C15.111,6.393 15.081,6.243 15.072,6.111 C15.072,6.110 15.067,6.112 15.067,6.111 C14.458,2.363 11.644,-0.000 8.000,-0.000 ZM8.000,2.012 C8.636,2.012 9.033,2.121 9.511,2.248 L9.491,2.412 L9.127,5.232 L9.127,5.237 C9.119,5.301 9.120,5.359 9.117,5.420 L9.112,5.420 C9.111,5.434 9.113,5.442 9.112,5.454 C9.112,5.462 9.112,5.470 9.112,5.478 C9.111,5.539 9.116,5.589 9.117,5.599 C9.119,5.621 9.123,5.644 9.127,5.666 C9.126,5.662 9.143,5.744 9.173,5.816 C9.174,5.819 9.176,5.822 9.178,5.825 C9.179,5.829 9.181,5.831 9.183,5.835 C9.244,5.965 9.430,6.207 9.744,6.264 C9.746,6.265 9.747,6.264 9.749,6.264 C9.753,6.265 9.755,6.268 9.759,6.269 L9.759,6.264 C10.087,6.316 10.395,6.112 10.472,6.028 C10.477,6.022 10.523,5.992 10.578,5.888 C10.589,5.867 10.602,5.844 10.614,5.816 C10.630,5.781 10.642,5.756 10.649,5.734 C10.650,5.730 10.652,5.724 10.654,5.719 C10.655,5.717 10.653,5.707 10.654,5.705 C10.674,5.648 10.696,5.582 10.715,5.502 L11.306,3.082 C12.368,3.841 13.066,4.949 13.161,6.192 L13.161,6.197 C13.176,6.395 13.208,6.626 13.313,6.872 C13.417,7.114 13.627,7.412 14.006,7.537 L14.006,8.540 L13.803,8.540 C13.653,8.540 13.503,8.591 13.389,8.684 C12.543,9.376 10.436,10.005 8.000,10.005 C5.562,10.005 3.452,9.376 2.606,8.684 C2.492,8.591 2.342,8.540 2.191,8.540 L1.999,8.540 C1.999,8.540 1.995,8.540 1.994,8.540 L1.994,7.537 C2.372,7.412 2.583,7.114 2.687,6.872 C2.791,6.626 2.824,6.395 2.839,6.197 L2.839,6.192 C2.934,4.948 3.631,3.841 4.694,3.082 L5.280,5.502 C5.280,5.504 5.285,5.501 5.285,5.502 C5.304,5.582 5.326,5.648 5.346,5.705 L5.341,5.705 C5.342,5.709 5.349,5.719 5.351,5.724 C5.352,5.726 5.350,5.732 5.351,5.734 C5.358,5.756 5.371,5.781 5.386,5.816 C5.398,5.844 5.410,5.867 5.422,5.888 C5.477,5.992 5.523,6.023 5.528,6.028 C5.604,6.111 5.908,6.314 6.236,6.264 C6.237,6.264 6.239,6.264 6.241,6.264 C6.245,6.264 6.252,6.265 6.256,6.264 C6.564,6.206 6.765,5.940 6.817,5.835 C6.819,5.831 6.820,5.825 6.822,5.821 C6.823,5.819 6.826,5.817 6.827,5.816 C6.856,5.745 6.877,5.665 6.878,5.662 C6.881,5.641 6.881,5.619 6.883,5.599 C6.884,5.586 6.889,5.536 6.888,5.478 C6.888,5.470 6.888,5.462 6.888,5.454 C6.887,5.444 6.889,5.436 6.888,5.425 L6.883,5.425 C6.880,5.362 6.876,5.303 6.868,5.237 L6.868,5.232 L6.509,2.412 L6.488,2.248 C6.968,2.121 7.364,2.012 8.000,2.012 Z" class="cls-1"/>
</svg>
