<svg id="Layer_1" data-name="Layer 1" xmlns="http://www.w3.org/2000/svg" viewBox="0 0 2718.99 831.44"><defs><style>.cls-1{fill:#e21e22;}.cls-1,.cls-2,.cls-3,.cls-4{fill-rule:evenodd;}.cls-2{fill:#c41a23;}.cls-3,.cls-6{fill:#151515;}.cls-4{fill:#fbcfb0;}.cls-5{fill:#fff;}</style></defs><title>logo-splash-basketball-club</title><path class="cls-1" d="M415.73,16.57c-220.46,0-399.18,178.7-399.18,399.15S195.26,814.87,415.73,814.87s399.15-178.7,399.15-399.15S636.18,16.57,415.73,16.57Z"/><path class="cls-2" d="M58.82,236.85A397.62,397.62,0,0,0,16.55,415.72c0,220.45,178.71,399.15,399.18,399.15a397.84,397.84,0,0,0,278.86-113.6,588,588,0,0,1-66.78,3.84c-282,0-517-201.43-569-468.26Z"/><path class="cls-3" d="M601.11,782.76,570,771.32c61.86-168.11,55.62-360.75-16.68-531.2q-24.51,2.53-49.95,7.53c45.47,132.29-39,221.87-120.76,308.62C317.55,625.32,256.06,690.56,259,774.85L225.93,776c-3.45-98.13,65.71-171.5,132.63-242.48,78.93-83.73,153.64-163,112.31-278.55-1.63.41-3.27.84-4.9,1.26C293.15,301.64,128.17,421.71,55.43,555l-29-15.86C103.15,398.46,276.21,272,457.16,224.34c-46.23-81.67-137.82-66.91-251.51-38.88C154.18,198.14,113.56,208.2,86,197.74l11.76-31c17.78,6.68,57.65-3.07,99.91-13.46,98.53-24.3,232.41-57.26,292.77,63.18,16.31-3.41,32.46-6.07,48.33-8C494.16,121,418.69,58.72,334.05,40.39l7-32.36c98.16,21.26,184.87,94.79,233.07,197.24,11.63-.66,23.13-1,34.48-.79-14.89-62.13,5.09-82.93,30.72-101.32,4.69-3.36,9.46-6.7,13.64-11l23.66,23.16c-5.53,5.67-11.78,10.23-18,14.71-17.78,12.75-30.9,22.17-15.4,76.16,58.17,5.15,110.78,21.67,155,49.23l-17.52,28.1c-35.94-22.39-78.27-36.71-125.14-42.73,31,70.62,89.77,117.74,133.88,153.1,14.27,11.44,26.83,21.53,36.31,30.62l-22.88,23.91c-8.92-8.52-20.75-18-34.14-28.68-47.34-37.94-117.93-94.51-150.06-181.95q-15.08-.56-30.46-.05C659.64,413.27,664.58,610.26,601.11,782.76Z"/><path class="cls-3" d="M415.73,33.11A382.63,382.63,0,1,0,686.25,145.18,381.43,381.43,0,0,0,415.73,33.11Zm-294,88.64A415.77,415.77,0,1,1,0,415.72a414.54,414.54,0,0,1,121.75-294Z"/><path class="cls-4" d="M101.91,212.36C169,211.73,256.66,175.12,331,174c41.91-.64,78.32,7.07,107.83,43.3l-24.87,7.78C381.65,188.22,327.72,183,267.39,193c-56.45,9.37-115.76,29.2-171.44,29.84Z"/><path class="cls-4" d="M304.26,577.84c80.16-72.64,192.67-209.47,157-309.59l-21.71,6.57c44.27,94.24-65.52,217.82-135.77,302.69Z"/><path class="cls-4" d="M505.13,204.77l20.06-3.3C470.92,110.26,408.14,66.18,336.45,46.32l-5.11,1.45c92.09,34.48,137,82.52,173.8,157Z"/><path class="cls-4" d="M532.16,252.43l15.45-2.13c38.63,90.41,75.95,260.54,37.46,447.14l-4.26-1.85C609,471,564.59,338.3,532.14,252.43Z"/><path class="cls-4" d="M599.88,197.51l-18,.57c-7.67-17.71-4.79-74.33,40.52-95.11l3.84,2c-20.21,11.09-40.32,50.36-26.37,92.54Z"/><path class="cls-4" d="M613.09,244.61l-13.86.55c30.19,86.85,127,173.7,188.55,206l.2-4.49c-97.86-66.59-154.45-139.78-174.89-202.11Z"/><polygon class="cls-5" points="1319.53 202.64 1305.11 290.96 1164.5 297.27 1247.42 347.91 1290.69 395.39 1301.5 415.72 1324.93 285.56 1431.29 281.05 1431.29 299.98 1484.47 278.35 1533.14 273.84 1572.8 291.87 1603.44 332.42 1616.96 395.39 1650.31 180.1 1781.9 180.1 1743.14 464.92 1785.5 464.92 1791.81 404.53 1813.44 339.63 1850.4 295.47 1908.98 276.54 1985.59 274.74 2048.68 281.05 2123.49 300.88 2196.5 276.54 2284.83 272.94 2360.54 281.95 2401.1 294.57 2421.83 180.1 2553.42 180.1 2539 291.87 2583.16 276.54 2628.22 272.94 2665.18 288.26 2687.71 312.6 2695.82 336.93 2695.82 368.57 2667.88 580.28 2365.95 580.28 2373.16 533.42 2335.3 566.76 2274.01 586.59 2181.18 586.59 2078.43 564.06 2073.92 578.48 1965.76 578.48 1963.06 562.26 1919.8 581.18 1871.13 586.59 1836.81 576.68 1802.63 560.46 1762.97 577.58 1704.38 586.59 1636.79 569.47 1596.23 520.8 1562.88 557.75 1516.01 579.38 1452.7 586.59 1416.87 586.59 1400.64 674.02 1268.15 674.02 1291.59 512.69 1251.03 562.26 1188.84 580.28 1092.4 587.49 977.03 564.96 991.45 461.31 1048.23 469.42 1130.25 466.72 1164.5 459.51 1086.09 424.11 1023 368.57 1006.77 308.09 1022.1 244.61 1059.95 196.33 1128.45 180.1 1210.47 173.79 1293.39 192.72 1319.53 202.64"/><path class="cls-6" d="M1479.67,368.57q-26.22,0-59.13,31.88l-13.37,103.87H1438q31.36,0,40.88-11.83T1494.58,437q5.65-42.16,2.57-55.28T1479.67,368.57Z"/><path class="cls-6" d="M1921.92,369.86q-12.09,11.57-17.74,52.19-6.69,44.23-4.11,56.56,2.47,11.85,17.25,11.85l1.26,0q27.77-1.54,60.68-44.74l12.34-86.9-30.34-.51Q1934,358.29,1921.92,369.86Z"/><path class="cls-6" d="M2693.8,285.38c-20-21.14-48.55-31.86-84.81-31.86a148.81,148.81,0,0,0-43.74,6.76l7.75-57.46,6.27-46.48H2403.13l-4.94,35.32-10.65,76.09-10-2.07c-35.61-7.34-79.9-11.43-131.63-12.15h-.57c-49,0-84.78,7.37-109.42,22.54q-2.74,1.68-5.34,3.5l-27.22-8.31c-14.69-4.49-36.08-8.49-65.38-12.25-28.78-3.68-52.35-5.48-72.06-5.48-21.07,0-37.94.65-51.58,2a206,206,0,0,0-48.24,11.16c-20.1,7.13-36.71,18-49.38,32.27-11.12,12.53-20.74,28.55-29.42,48.94a252.78,252.78,0,0,0-13,40.39l26.5-185.14,6.7-46.81h-176l-5,35.24-15.41,108.64a104.59,104.59,0,0,0-8.24-10.77c-14-15.92-39.77-34.89-83.56-34.89a154,154,0,0,0-63.39,13.86v-7.69h-123.8l6-42.82,4.76-34.19-32.88-10.52c-38.17-12.21-83.38-18.4-134.36-18.4-55.9,0-97.24,8.72-126.39,26.65-17.44,10.73-31.45,26-41.66,45.38-9,17.15-15.14,37.84-18.15,61.5v.09c-4.14,33.1.39,62.38,13.46,87,7.09,13.39,17.42,25.67,30.69,36.49,11.72,9.55,26.11,18.24,42.78,25.84l0,0,0,0,6.87,3.11c-17.21-.39-40.72-.95-72.75-1.74l-36.68-.91-5,36.36-9.26,67.88-5,36.55,35.82,8.81A590.81,590.81,0,0,0,1131.35,605c28,0,51.54-2,72-6.06,23.35-4.65,42-11.9,57-22.18l.79-.56-9.83,70.58-6.5,46.66h175.49l5.66-34.33,7.71-46.79.06-.38.06-.38q.55-3.76,1-7.52c11.64,1,23.33,1.48,35,1.48,20.67,0,38.27-2.08,53.81-6.35,17.28-4.76,33.82-13.49,49.17-26a117.23,117.23,0,0,0,22-23.84,95,95,0,0,0,18.8,24.83C1635.15,594.6,1664.9,605,1702,605c38.31,0,65.65-4.86,86-15.3l15.31-7.84a93.84,93.84,0,0,0,14.69,9.77c16.08,8.65,35.31,13,57.17,13,2.86,0,5.82-.08,8.79-.22a183.46,183.46,0,0,0,58.83-12.16v6H2092l.88-6.24,6.34,1.06a788.33,788.33,0,0,0,129.12,10.84c48.46,0,84.65-6.42,110.62-19.62q2.27-1.15,4.6-2.5l-2.31,16.47h344.5l5-35.28,26.72-189.64C2724,328.28,2708.23,300.64,2693.8,285.38ZM1237.28,542.89Q1206.43,564,1131.35,564A547.23,547.23,0,0,1,1000.23,548l9.26-67.88q103.86,2.58,117.24,2.57,28.79,0,39.85-4.89T1180.2,458q2.05-11.31-2.31-16.45t-18.77-11.31l-65.82-29.82q-40.63-18.51-54.25-44.22t-9-62.73q7.19-56.56,40.62-77.13t104.9-20.57q70.44,0,121.87,16.45L1288.7,275q-92.56-1.54-117.76-1.54-24.18,0-33.42,4.11t-11.83,19.54q-2.06,11.31,2.83,17.23t22.37,13.11l61.19,26.74q41.65,18,54.76,42.42t8.48,65.56Q1268.12,521.81,1237.28,542.89Zm-8.84-226.32-3.62-1.58q26.24.37,63.2,1l9.41.16L1291.31,360C1277.08,343,1256.33,328.64,1228.43,316.58ZM1574,501.75q-10.55,26.23-27,39.59t-34.2,18.25q-17.74,4.88-42.94,4.89a371.61,371.61,0,0,1-73-7.2,335.75,335.75,0,0,1-3.6,48.34l-7.71,46.79H1292l48.85-350.69h74v46.79q50.91-53,104.39-53,89,0,70.45,139.87Q1584.56,475.53,1574,501.75ZM1702,564q-39.6,0-60.16-19.54T1625.42,491l41.65-293.62h93.07l-39.08,273q-2.06,11.83,2.31,15.94t19.28,4.11h21.58q.33,5.62.92,11l4.24,51.78Q1748.31,564,1702,564Zm281.85-6.68V509q-36,51.42-101.81,54.51-3.48.18-6.8.18-45.23,0-60.56-32.57-6.42-13.64-8.69-33l-.9-11L1805,486q-1.31-26.64,4-62.41,5.65-35.48,15.94-59.65t22.37-37.79q12.08-13.62,32.4-20.83a164.28,164.28,0,0,1,38.57-9q18.25-1.8,47.56-1.8,26.73,0,66.85,5.14t58.62,10.8l-35,246.82Zm336.5-9.51q-29.83,15.16-92,15.17A743.72,743.72,0,0,1,2106,552.66l7.71-56q6.17,0,37,.26t46.79.26q41.65,0,54.76-2.57t14.14-9.77q.51-5.65-4.63-8.74t-24.17-9.26l-57.08-19.54q-63.25-21.6-54.51-84.33,4.63-35.48,31.37-51.94t87.93-16.45q74,1,123.93,11.31l-8.23,56q-66.85-1-98.73-1-29.31,0-38.05,1.54t-9.77,7.71a10.06,10.06,0,0,0,4.89,9.77q5.4,3.6,21.34,8.74l59.13,19q63.25,20.57,56,79.19Q2350.2,532.61,2320.38,547.78Zm356.49-180.23-26.74,189.75h-93.07l23.14-163.52q1.54-12.34-1-16.2t-11.83-3.86q-25.72,0-64.28,29.82L2482,557.29h-93.59l50.39-360h93.59l-11.31,83.82a379.23,379.23,0,0,1-14.4,61.71q53.47-48.33,102.33-48.34,37,0,55,19T2676.87,367.54Z"/></svg>